<svg width="283" height="70" viewBox="0 0 283 70" fill="none" xmlns="http://www.w3.org/2000/svg">
<path d="M1.39475e-05 8V5.95454C1.39475e-05 5.33333 0.109862 4.67424 0.329559 3.97727C0.556832 3.27273 0.88259 2.5947 1.30683 1.94318C1.73865 1.28409 2.25759 0.71212 2.86365 0.227272L4.3182 1.40909C3.84092 2.09091 3.42426 2.80303 3.0682 3.54545C2.71971 4.2803 2.54547 5.06818 2.54547 5.90909V8H1.39475e-05ZM5.8182 8V5.95454C5.8182 5.33333 5.92804 4.67424 6.14774 3.97727C6.37501 3.27273 6.70077 2.5947 7.12501 1.94318C7.55683 1.28409 8.07577 0.71212 8.68183 0.227272L10.1364 1.40909C9.6591 2.09091 9.24244 2.80303 8.88638 3.54545C8.53789 4.2803 8.36365 5.06818 8.36365 5.90909V8H5.8182ZM32.1875 8H29.3693C29.2027 7.18939 28.911 6.47727 28.4943 5.86364C28.0852 5.25 27.5852 4.73485 26.9943 4.31818C26.411 3.89394 25.7633 3.57576 25.0512 3.36364C24.339 3.15151 23.5966 3.04545 22.8239 3.04545C21.4148 3.04545 20.1383 3.40151 18.9943 4.11364C17.858 4.82576 16.9527 5.875 16.2784 7.26136C15.6118 8.64773 15.2784 10.3485 15.2784 12.3636C15.2784 14.3788 15.6118 16.0795 16.2784 17.4659C16.9527 18.8523 17.858 19.9015 18.9943 20.6136C20.1383 21.3258 21.4148 21.6818 22.8239 21.6818C23.5966 21.6818 24.339 21.5758 25.0512 21.3636C25.7633 21.1515 26.411 20.8371 26.9943 20.4205C27.5852 19.9962 28.0852 19.4773 28.4943 18.8636C28.911 18.2424 29.2027 17.5303 29.3693 16.7273H32.1875C31.9754 17.9167 31.589 18.9811 31.0284 19.9205C30.4678 20.8598 29.7708 21.6591 28.9375 22.3182C28.1042 22.9697 27.1686 23.4659 26.1307 23.8068C25.1004 24.1477 23.9981 24.3182 22.8239 24.3182C20.839 24.3182 19.0739 23.8333 17.5284 22.8636C15.983 21.8939 14.7671 20.5152 13.8807 18.7273C12.9943 16.9394 12.5512 14.8182 12.5512 12.3636C12.5512 9.90909 12.9943 7.78788 13.8807 6C14.7671 4.21212 15.983 2.83333 17.5284 1.86364C19.0739 0.893939 20.839 0.40909 22.8239 0.40909C23.9981 0.40909 25.1004 0.579545 26.1307 0.920454C27.1686 1.26136 28.1042 1.76136 28.9375 2.42045C29.7708 3.07197 30.4678 3.86742 31.0284 4.80682C31.589 5.73864 31.9754 6.80303 32.1875 8ZM47.3779 16.8636V6.54545H50.0597V24H47.3779V21.0455H47.196C46.7869 21.9318 46.1506 22.6856 45.2869 23.3068C44.4233 23.9205 43.3324 24.2273 42.0142 24.2273C40.9233 24.2273 39.9536 23.9886 39.1051 23.5114C38.2566 23.0265 37.59 22.2992 37.1051 21.3295C36.6203 20.3523 36.3779 19.1212 36.3779 17.6364V6.54545H39.0597V17.4545C39.0597 18.7273 39.4157 19.7424 40.1279 20.5C40.8476 21.2576 41.7642 21.6364 42.8779 21.6364C43.5445 21.6364 44.2226 21.4659 44.9119 21.125C45.6089 20.7841 46.1922 20.2614 46.6619 19.5568C47.1392 18.8523 47.3779 17.9545 47.3779 16.8636ZM54.9716 24V6.54545H57.6534V24H54.9716ZM56.3352 3.63636C55.8125 3.63636 55.3618 3.45833 54.983 3.10227C54.6118 2.74621 54.4262 2.31818 54.4262 1.81818C54.4262 1.31818 54.6118 0.890151 54.983 0.53409C55.3618 0.17803 55.8125 0 56.3352 0C56.858 0 57.3049 0.17803 57.6762 0.53409C58.0549 0.890151 58.2443 1.31818 58.2443 1.81818C58.2443 2.31818 58.0549 2.74621 57.6762 3.10227C57.3049 3.45833 56.858 3.63636 56.3352 3.63636ZM69.1563 24.3636C67.7017 24.3636 66.4176 23.9962 65.304 23.2614C64.1904 22.5189 63.3191 21.4735 62.6904 20.125C62.0616 18.7689 61.7472 17.1667 61.7472 15.3182C61.7472 13.4848 62.0616 11.8939 62.6904 10.5455C63.3191 9.19697 64.1941 8.1553 65.3154 7.42045C66.4366 6.68561 67.732 6.31818 69.2017 6.31818C70.3381 6.31818 71.2358 6.50758 71.8949 6.88636C72.5616 7.25758 73.0691 7.68182 73.4176 8.15909C73.7737 8.62879 74.0502 9.01515 74.2472 9.31818H74.4744V0.727272H77.1563V24H74.5654V21.3182H74.2472C74.0502 21.6364 73.7699 22.0379 73.4063 22.5227C73.0426 23 72.5237 23.428 71.8494 23.8068C71.1752 24.178 70.2775 24.3636 69.1563 24.3636ZM69.5199 21.9545C70.5957 21.9545 71.5047 21.6742 72.2472 21.1136C72.9896 20.5455 73.554 19.7614 73.9404 18.7614C74.3267 17.7538 74.5199 16.5909 74.5199 15.2727C74.5199 13.9697 74.3305 12.8295 73.9517 11.8523C73.5729 10.8674 73.0123 10.1023 72.2699 9.55682C71.5275 9.00379 70.6108 8.72727 69.5199 8.72727C68.3835 8.72727 67.4366 9.01894 66.679 9.60227C65.929 10.178 65.3646 10.9621 64.9858 11.9545C64.6146 12.9394 64.429 14.0455 64.429 15.2727C64.429 16.5152 64.6184 17.6439 64.9972 18.6591C65.3835 19.6667 65.9517 20.4697 66.7017 21.0682C67.4593 21.6591 68.3987 21.9545 69.5199 21.9545ZM87.5767 24.4091C86.4707 24.4091 85.4669 24.2008 84.5654 23.7841C83.6638 23.3598 82.9479 22.75 82.4176 21.9545C81.8873 21.1515 81.6222 20.1818 81.6222 19.0455C81.6222 18.0455 81.8191 17.2348 82.2131 16.6136C82.607 15.9848 83.1335 15.4924 83.7926 15.1364C84.4517 14.7803 85.179 14.5152 85.9744 14.3409C86.7775 14.1591 87.5843 14.0152 88.3949 13.9091C89.4555 13.7727 90.3154 13.6705 90.9744 13.6023C91.6411 13.5265 92.126 13.4015 92.429 13.2273C92.7396 13.053 92.8949 12.75 92.8949 12.3182V12.2273C92.8949 11.1061 92.5881 10.2348 91.9744 9.61364C91.3684 8.99242 90.4479 8.68182 89.2131 8.68182C87.9328 8.68182 86.929 8.96212 86.2017 9.52273C85.4744 10.0833 84.9631 10.6818 84.6676 11.3182L82.1222 10.4091C82.5767 9.34848 83.1828 8.52273 83.9404 7.93182C84.7055 7.33333 85.5388 6.91667 86.4404 6.68182C87.3494 6.43939 88.2434 6.31818 89.1222 6.31818C89.6828 6.31818 90.3267 6.38636 91.054 6.52273C91.7888 6.65151 92.4972 6.92045 93.179 7.32954C93.8684 7.73864 94.4404 8.35606 94.8949 9.18182C95.3494 10.0076 95.5767 11.1136 95.5767 12.5V24H92.8949V21.6364H92.7585C92.5767 22.0152 92.2737 22.4205 91.8494 22.8523C91.4252 23.2841 90.8608 23.6515 90.1563 23.9545C89.4517 24.2576 88.5919 24.4091 87.5767 24.4091ZM87.9858 22C89.0464 22 89.9404 21.7917 90.6676 21.375C91.4025 20.9583 91.9555 20.4205 92.3267 19.7614C92.7055 19.1023 92.8949 18.4091 92.8949 17.6818V15.2273C92.7813 15.3636 92.5313 15.4886 92.1449 15.6023C91.7661 15.7083 91.3267 15.803 90.8267 15.8864C90.3343 15.9621 89.8532 16.0303 89.3835 16.0909C88.9214 16.1439 88.5464 16.1894 88.2585 16.2273C87.5616 16.3182 86.9101 16.4659 86.304 16.6705C85.7055 16.8674 85.2207 17.1667 84.8494 17.5682C84.4858 17.9621 84.304 18.5 84.304 19.1818C84.304 20.1136 84.6487 20.8182 85.3381 21.2955C86.0351 21.7652 86.9176 22 87.9858 22ZM100.472 24V6.54545H103.063V9.27273H103.29C103.653 8.34091 104.241 7.61742 105.051 7.10227C105.862 6.57955 106.835 6.31818 107.972 6.31818C109.123 6.31818 110.081 6.57955 110.847 7.10227C111.619 7.61742 112.222 8.34091 112.653 9.27273H112.835C113.282 8.37121 113.953 7.6553 114.847 7.125C115.741 6.58712 116.813 6.31818 118.063 6.31818C119.623 6.31818 120.9 6.80682 121.892 7.78409C122.884 8.75379 123.381 10.2652 123.381 12.3182V24H120.699V12.3182C120.699 11.0303 120.347 10.1098 119.642 9.55682C118.938 9.00379 118.108 8.72727 117.153 8.72727C115.926 8.72727 114.975 9.09848 114.301 9.84091C113.627 10.5758 113.29 11.5076 113.29 12.6364V24H110.563V12.0455C110.563 11.053 110.241 10.2538 109.597 9.64773C108.953 9.03409 108.123 8.72727 107.108 8.72727C106.411 8.72727 105.759 8.91288 105.153 9.28409C104.555 9.6553 104.07 10.1705 103.699 10.8295C103.335 11.4811 103.153 12.2348 103.153 13.0909V24H100.472ZM135.375 24.3636C133.799 24.3636 132.417 23.9886 131.227 23.2386C130.045 22.4886 129.121 21.4394 128.455 20.0909C127.795 18.7424 127.466 17.1667 127.466 15.3636C127.466 13.5455 127.795 11.9583 128.455 10.6023C129.121 9.24621 130.045 8.19318 131.227 7.44318C132.417 6.69318 133.799 6.31818 135.375 6.31818C136.951 6.31818 138.33 6.69318 139.511 7.44318C140.701 8.19318 141.625 9.24621 142.284 10.6023C142.951 11.9583 143.284 13.5455 143.284 15.3636C143.284 17.1667 142.951 18.7424 142.284 20.0909C141.625 21.4394 140.701 22.4886 139.511 23.2386C138.33 23.9886 136.951 24.3636 135.375 24.3636ZM135.375 21.9545C136.572 21.9545 137.557 21.6477 138.33 21.0341C139.102 20.4205 139.674 19.6136 140.045 18.6136C140.417 17.6136 140.602 16.5303 140.602 15.3636C140.602 14.197 140.417 13.1098 140.045 12.1023C139.674 11.0947 139.102 10.2803 138.33 9.65909C137.557 9.03788 136.572 8.72727 135.375 8.72727C134.178 8.72727 133.193 9.03788 132.42 9.65909C131.648 10.2803 131.076 11.0947 130.705 12.1023C130.333 13.1098 130.148 14.197 130.148 15.3636C130.148 16.5303 130.333 17.6136 130.705 18.6136C131.076 19.6136 131.648 20.4205 132.42 21.0341C133.193 21.6477 134.178 21.9545 135.375 21.9545ZM159.741 10.4545L157.332 11.1364C157.181 10.7348 156.957 10.3447 156.662 9.96591C156.374 9.57955 155.98 9.26136 155.48 9.01136C154.98 8.76136 154.34 8.63636 153.56 8.63636C152.491 8.63636 151.601 8.88258 150.889 9.375C150.185 9.85985 149.832 10.4773 149.832 11.2273C149.832 11.8939 150.075 12.4205 150.56 12.8068C151.045 13.1932 151.802 13.5152 152.832 13.7727L155.423 14.4091C156.984 14.7879 158.147 15.3674 158.912 16.1477C159.677 16.9205 160.06 17.9167 160.06 19.1364C160.06 20.1364 159.772 21.0303 159.196 21.8182C158.628 22.6061 157.832 23.2273 156.81 23.6818C155.787 24.1364 154.598 24.3636 153.241 24.3636C151.461 24.3636 149.988 23.9773 148.821 23.2045C147.654 22.4318 146.916 21.303 146.605 19.8182L149.151 19.1818C149.393 20.1212 149.851 20.8258 150.526 21.2955C151.207 21.7652 152.098 22 153.196 22C154.446 22 155.438 21.7348 156.173 21.2045C156.916 20.6667 157.287 20.0227 157.287 19.2727C157.287 18.6667 157.075 18.1591 156.651 17.75C156.226 17.3333 155.575 17.0227 154.696 16.8182L151.787 16.1364C150.188 15.7576 149.014 15.1705 148.264 14.375C147.522 13.572 147.151 12.5682 147.151 11.3636C147.151 10.3788 147.427 9.50758 147.98 8.75C148.541 7.99242 149.302 7.39773 150.264 6.96591C151.234 6.53409 152.332 6.31818 153.56 6.31818C155.287 6.31818 156.643 6.69697 157.628 7.45454C158.62 8.21212 159.325 9.21212 159.741 10.4545ZM175.778 13.5V24H173.097V6.54545H175.688V9.27273H175.915C176.324 8.38636 176.945 7.67424 177.778 7.13636C178.612 6.59091 179.688 6.31818 181.006 6.31818C182.188 6.31818 183.222 6.56061 184.108 7.04545C184.994 7.52273 185.684 8.25 186.176 9.22727C186.669 10.197 186.915 11.4242 186.915 12.9091V24H184.233V13.0909C184.233 11.7197 183.877 10.6515 183.165 9.88636C182.453 9.11364 181.475 8.72727 180.233 8.72727C179.377 8.72727 178.612 8.91288 177.938 9.28409C177.271 9.6553 176.744 10.197 176.358 10.9091C175.972 11.6212 175.778 12.4848 175.778 13.5ZM202.815 16.8636V6.54545H205.497V24H202.815V21.0455H202.634C202.224 21.9318 201.588 22.6856 200.724 23.3068C199.861 23.9205 198.77 24.2273 197.452 24.2273C196.361 24.2273 195.391 23.9886 194.543 23.5114C193.694 23.0265 193.027 22.2992 192.543 21.3295C192.058 20.3523 191.815 19.1212 191.815 17.6364V6.54545H194.497V17.4545C194.497 18.7273 194.853 19.7424 195.565 20.5C196.285 21.2576 197.202 21.6364 198.315 21.6364C198.982 21.6364 199.66 21.4659 200.349 21.125C201.046 20.7841 201.63 20.2614 202.099 19.5568C202.577 18.8523 202.815 17.9545 202.815 16.8636ZM217.727 24.3636C216.045 24.3636 214.595 23.9924 213.375 23.25C212.163 22.5 211.227 21.4545 210.568 20.1136C209.917 18.7652 209.591 17.197 209.591 15.4091C209.591 13.6212 209.917 12.0455 210.568 10.6818C211.227 9.31061 212.144 8.24242 213.318 7.47727C214.5 6.70455 215.879 6.31818 217.455 6.31818C218.364 6.31818 219.261 6.4697 220.148 6.77273C221.034 7.07576 221.841 7.56818 222.568 8.25C223.295 8.92424 223.875 9.81818 224.307 10.9318C224.739 12.0455 224.955 13.4167 224.955 15.0455V16.1818H211.5V13.8636H222.227C222.227 12.8788 222.03 12 221.636 11.2273C221.25 10.4545 220.697 9.8447 219.977 9.39773C219.265 8.95076 218.424 8.72727 217.455 8.72727C216.386 8.72727 215.462 8.99242 214.682 9.52273C213.909 10.0455 213.314 10.7273 212.898 11.5682C212.481 12.4091 212.273 13.3106 212.273 14.2727V15.8182C212.273 17.1364 212.5 18.2538 212.955 19.1705C213.417 20.0795 214.057 20.7727 214.875 21.25C215.693 21.7197 216.644 21.9545 217.727 21.9545C218.432 21.9545 219.068 21.8561 219.636 21.6591C220.212 21.4545 220.708 21.1515 221.125 20.75C221.542 20.3409 221.864 19.8333 222.091 19.2273L224.682 19.9545C224.409 20.8333 223.951 21.6061 223.307 22.2727C222.663 22.9318 221.867 23.447 220.92 23.8182C219.973 24.1818 218.909 24.3636 217.727 24.3636ZM241.398 10.4545L238.989 11.1364C238.837 10.7348 238.614 10.3447 238.318 9.96591C238.03 9.57955 237.636 9.26136 237.136 9.01136C236.636 8.76136 235.996 8.63636 235.216 8.63636C234.148 8.63636 233.258 8.88258 232.545 9.375C231.841 9.85985 231.489 10.4773 231.489 11.2273C231.489 11.8939 231.731 12.4205 232.216 12.8068C232.701 13.1932 233.458 13.5152 234.489 13.7727L237.08 14.4091C238.64 14.7879 239.803 15.3674 240.568 16.1477C241.333 16.9205 241.716 17.9167 241.716 19.1364C241.716 20.1364 241.428 21.0303 240.852 21.8182C240.284 22.6061 239.489 23.2273 238.466 23.6818C237.443 24.1364 236.254 24.3636 234.898 24.3636C233.117 24.3636 231.644 23.9773 230.477 23.2045C229.311 22.4318 228.572 21.303 228.261 19.8182L230.807 19.1818C231.049 20.1212 231.508 20.8258 232.182 21.2955C232.864 21.7652 233.754 22 234.852 22C236.102 22 237.095 21.7348 237.83 21.2045C238.572 20.6667 238.943 20.0227 238.943 19.2727C238.943 18.6667 238.731 18.1591 238.307 17.75C237.883 17.3333 237.231 17.0227 236.352 16.8182L233.443 16.1364C231.845 15.7576 230.67 15.1705 229.92 14.375C229.178 13.572 228.807 12.5682 228.807 11.3636C228.807 10.3788 229.083 9.50758 229.636 8.75C230.197 7.99242 230.958 7.39773 231.92 6.96591C232.89 6.53409 233.989 6.31818 235.216 6.31818C236.943 6.31818 238.299 6.69697 239.284 7.45454C240.277 8.21212 240.981 9.21212 241.398 10.4545ZM253.344 6.54545V8.81818H244.298V6.54545H253.344ZM246.935 2.36364H249.616V19C249.616 19.7576 249.726 20.3258 249.946 20.7045C250.173 21.0758 250.461 21.3258 250.81 21.4545C251.166 21.5758 251.541 21.6364 251.935 21.6364C252.23 21.6364 252.473 21.6212 252.662 21.5909C252.851 21.553 253.003 21.5227 253.116 21.5L253.662 23.9091C253.48 23.9773 253.226 24.0455 252.901 24.1136C252.575 24.1894 252.162 24.2273 251.662 24.2273C250.904 24.2273 250.162 24.0644 249.435 23.7386C248.715 23.4129 248.116 22.9167 247.639 22.25C247.17 21.5833 246.935 20.7424 246.935 19.7273V2.36364ZM257.378 24V6.54545H259.969V9.18182H260.151C260.469 8.31818 261.045 7.61742 261.878 7.07954C262.711 6.54167 263.651 6.27273 264.696 6.27273C264.893 6.27273 265.139 6.27651 265.435 6.28409C265.73 6.29167 265.954 6.30303 266.105 6.31818V9.04545C266.014 9.02273 265.806 8.98864 265.48 8.94318C265.162 8.89015 264.825 8.86364 264.469 8.86364C263.62 8.86364 262.863 9.04167 262.196 9.39773C261.537 9.74621 261.014 10.2311 260.628 10.8523C260.249 11.4659 260.06 12.1667 260.06 12.9545V24H257.378ZM274.42 24.4091C273.314 24.4091 272.311 24.2008 271.409 23.7841C270.508 23.3598 269.792 22.75 269.261 21.9545C268.731 21.1515 268.466 20.1818 268.466 19.0455C268.466 18.0455 268.663 17.2348 269.057 16.6136C269.451 15.9848 269.977 15.4924 270.636 15.1364C271.295 14.7803 272.023 14.5152 272.818 14.3409C273.621 14.1591 274.428 14.0152 275.239 13.9091C276.299 13.7727 277.159 13.6705 277.818 13.6023C278.485 13.5265 278.97 13.4015 279.273 13.2273C279.583 13.053 279.739 12.75 279.739 12.3182V12.2273C279.739 11.1061 279.432 10.2348 278.818 9.61364C278.212 8.99242 277.292 8.68182 276.057 8.68182C274.777 8.68182 273.773 8.96212 273.045 9.52273C272.318 10.0833 271.807 10.6818 271.511 11.3182L268.966 10.4091C269.42 9.34848 270.027 8.52273 270.784 7.93182C271.549 7.33333 272.383 6.91667 273.284 6.68182C274.193 6.43939 275.087 6.31818 275.966 6.31818C276.527 6.31818 277.17 6.38636 277.898 6.52273C278.633 6.65151 279.341 6.92045 280.023 7.32954C280.712 7.73864 281.284 8.35606 281.739 9.18182C282.193 10.0076 282.42 11.1136 282.42 12.5V24H279.739V21.6364H279.602C279.42 22.0152 279.117 22.4205 278.693 22.8523C278.269 23.2841 277.705 23.6515 277 23.9545C276.295 24.2576 275.436 24.4091 274.42 24.4091ZM274.83 22C275.89 22 276.784 21.7917 277.511 21.375C278.246 20.9583 278.799 20.4205 279.17 19.7614C279.549 19.1023 279.739 18.4091 279.739 17.6818V15.2273C279.625 15.3636 279.375 15.4886 278.989 15.6023C278.61 15.7083 278.17 15.803 277.67 15.8864C277.178 15.9621 276.697 16.0303 276.227 16.0909C275.765 16.1439 275.39 16.1894 275.102 16.2273C274.405 16.3182 273.754 16.4659 273.148 16.6705C272.549 16.8674 272.064 17.1667 271.693 17.5682C271.33 17.9621 271.148 18.5 271.148 19.1818C271.148 20.1136 271.492 20.8182 272.182 21.2955C272.879 21.7652 273.761 22 274.83 22ZM0.909105 69.5455V45.5455H3.50001V48.3182H3.8182C4.01517 48.0152 4.28789 47.6288 4.63638 47.1591C4.99244 46.6818 5.50001 46.2576 6.1591 45.8864C6.82577 45.5076 7.72729 45.3182 8.86365 45.3182C10.3333 45.3182 11.6288 45.6856 12.75 46.4205C13.8712 47.1553 14.7462 48.197 15.375 49.5455C16.0038 50.8939 16.3182 52.4848 16.3182 54.3182C16.3182 56.1667 16.0038 57.7689 15.375 59.125C14.7462 60.4735 13.875 61.5189 12.7614 62.2614C11.6477 62.9962 10.3637 63.3636 8.90911 63.3636C7.78789 63.3636 6.89017 63.178 6.21592 62.8068C5.54168 62.428 5.02274 62 4.6591 61.5227C4.29547 61.0379 4.01517 60.6364 3.8182 60.3182H3.59092V69.5455H0.909105ZM3.54547 54.2727C3.54547 55.5909 3.73865 56.7538 4.12501 57.7614C4.51138 58.7614 5.07577 59.5455 5.8182 60.1136C6.56062 60.6742 7.46971 60.9545 8.54547 60.9545C9.66668 60.9545 10.6023 60.6591 11.3523 60.0682C12.1099 59.4697 12.678 58.6667 13.0568 57.6591C13.4432 56.6439 13.6364 55.5152 13.6364 54.2727C13.6364 53.0455 13.447 51.9394 13.0682 50.9545C12.697 49.9621 12.1326 49.178 11.375 48.6023C10.625 48.0189 9.68183 47.7273 8.54547 47.7273C7.45456 47.7273 6.53789 48.0038 5.79547 48.5568C5.05304 49.1023 4.49244 49.8674 4.11365 50.8523C3.73486 51.8295 3.54547 52.9697 3.54547 54.2727ZM20.4091 63V45.5455H23V48.1818H23.1818C23.5 47.3182 24.0758 46.6174 24.9091 46.0795C25.7424 45.5417 26.6818 45.2727 27.7273 45.2727C27.9243 45.2727 28.1705 45.2765 28.4659 45.2841C28.7614 45.2917 28.9849 45.303 29.1364 45.3182V48.0455C29.0455 48.0227 28.8371 47.9886 28.5114 47.9432C28.1932 47.8902 27.8561 47.8636 27.5 47.8636C26.6515 47.8636 25.894 48.0417 25.2273 48.3977C24.5682 48.7462 24.0455 49.2311 23.6591 49.8523C23.2803 50.4659 23.0909 51.1667 23.0909 51.9545V63H20.4091ZM38.875 63.3636C37.2993 63.3636 35.9167 62.9886 34.7273 62.2386C33.5455 61.4886 32.6212 60.4394 31.9546 59.0909C31.2955 57.7424 30.9659 56.1667 30.9659 54.3636C30.9659 52.5455 31.2955 50.9583 31.9546 49.6023C32.6212 48.2462 33.5455 47.1932 34.7273 46.4432C35.9167 45.6932 37.2993 45.3182 38.875 45.3182C40.4508 45.3182 41.8296 45.6932 43.0114 46.4432C44.2008 47.1932 45.125 48.2462 45.7841 49.6023C46.4508 50.9583 46.7841 52.5455 46.7841 54.3636C46.7841 56.1667 46.4508 57.7424 45.7841 59.0909C45.125 60.4394 44.2008 61.4886 43.0114 62.2386C41.8296 62.9886 40.4508 63.3636 38.875 63.3636ZM38.875 60.9545C40.072 60.9545 41.0568 60.6477 41.8296 60.0341C42.6023 59.4205 43.1743 58.6136 43.5455 57.6136C43.9167 56.6136 44.1023 55.5303 44.1023 54.3636C44.1023 53.197 43.9167 52.1098 43.5455 51.1023C43.1743 50.0947 42.6023 49.2803 41.8296 48.6591C41.0568 48.0379 40.072 47.7273 38.875 47.7273C37.678 47.7273 36.6932 48.0379 35.9205 48.6591C35.1477 49.2803 34.5758 50.0947 34.2046 51.1023C33.8333 52.1098 33.6477 53.197 33.6477 54.3636C33.6477 55.5303 33.8333 56.6136 34.2046 57.6136C34.5758 58.6136 35.1477 59.4205 35.9205 60.0341C36.6932 60.6477 37.678 60.9545 38.875 60.9545ZM64.5256 45.5455L58.071 63H55.3438L48.8892 45.5455H51.7983L56.6165 59.4545H56.7983L61.6165 45.5455H64.5256ZM68.0654 63V45.5455H70.7472V63H68.0654ZM69.429 42.6364C68.9063 42.6364 68.4555 42.4583 68.0767 42.1023C67.7055 41.7462 67.5199 41.3182 67.5199 40.8182C67.5199 40.3182 67.7055 39.8902 68.0767 39.5341C68.4555 39.178 68.9063 39 69.429 39C69.9517 39 70.3987 39.178 70.7699 39.5341C71.1487 39.8902 71.3381 40.3182 71.3381 40.8182C71.3381 41.3182 71.1487 41.7462 70.7699 42.1023C70.3987 42.4583 69.9517 42.6364 69.429 42.6364ZM78.3409 52.5V63H75.6591V45.5455H78.25V48.2727H78.4773C78.8864 47.3864 79.5076 46.6742 80.3409 46.1364C81.1743 45.5909 82.25 45.3182 83.5682 45.3182C84.75 45.3182 85.7841 45.5606 86.6705 46.0455C87.5568 46.5227 88.2462 47.25 88.7387 48.2273C89.2311 49.197 89.4773 50.4242 89.4773 51.9091V63H86.7955V52.0909C86.7955 50.7197 86.4394 49.6515 85.7273 48.8864C85.0152 48.1136 84.0379 47.7273 82.7955 47.7273C81.9394 47.7273 81.1743 47.9129 80.5 48.2841C79.8333 48.6553 79.3068 49.197 78.9205 49.9091C78.5341 50.6212 78.3409 51.4848 78.3409 52.5ZM101.469 63.3636C99.8324 63.3636 98.4233 62.9773 97.2415 62.2045C96.0597 61.4318 95.1506 60.3674 94.5142 59.0114C93.8779 57.6553 93.5597 56.1061 93.5597 54.3636C93.5597 52.5909 93.8854 51.0265 94.5369 49.6705C95.196 48.3068 96.1127 47.2424 97.2869 46.4773C98.4688 45.7045 99.8476 45.3182 101.423 45.3182C102.651 45.3182 103.757 45.5455 104.741 46C105.726 46.4545 106.533 47.0909 107.162 47.9091C107.791 48.7273 108.181 49.6818 108.332 50.7727H105.651C105.446 49.9773 104.991 49.2727 104.287 48.6591C103.59 48.0379 102.651 47.7273 101.469 47.7273C100.423 47.7273 99.5066 48 98.7188 48.5455C97.9385 49.0833 97.3286 49.8447 96.8892 50.8295C96.4574 51.8068 96.2415 52.9545 96.2415 54.2727C96.2415 55.6212 96.4536 56.7955 96.8779 57.7955C97.3097 58.7955 97.9157 59.572 98.696 60.125C99.4839 60.678 100.408 60.9545 101.469 60.9545C102.166 60.9545 102.798 60.8333 103.366 60.5909C103.935 60.3485 104.416 60 104.81 59.5455C105.204 59.0909 105.484 58.5455 105.651 57.9091H108.332C108.181 58.9394 107.806 59.8674 107.207 60.6932C106.616 61.5114 105.832 62.1629 104.855 62.6477C103.885 63.125 102.757 63.3636 101.469 63.3636ZM112.253 63V45.5455H114.935V63H112.253ZM113.616 42.6364C113.094 42.6364 112.643 42.4583 112.264 42.1023C111.893 41.7462 111.707 41.3182 111.707 40.8182C111.707 40.3182 111.893 39.8902 112.264 39.5341C112.643 39.178 113.094 39 113.616 39C114.139 39 114.586 39.178 114.957 39.5341C115.336 39.8902 115.526 40.3182 115.526 40.8182C115.526 41.3182 115.336 41.7462 114.957 42.1023C114.586 42.4583 114.139 42.6364 113.616 42.6364ZM124.983 63.4091C123.877 63.4091 122.873 63.2008 121.972 62.7841C121.07 62.3598 120.354 61.75 119.824 60.9545C119.294 60.1515 119.028 59.1818 119.028 58.0455C119.028 57.0455 119.225 56.2348 119.619 55.6136C120.013 54.9848 120.54 54.4924 121.199 54.1364C121.858 53.7803 122.585 53.5152 123.381 53.3409C124.184 53.1591 124.991 53.0152 125.801 52.9091C126.862 52.7727 127.722 52.6705 128.381 52.6023C129.047 52.5265 129.532 52.4015 129.835 52.2273C130.146 52.053 130.301 51.75 130.301 51.3182V51.2273C130.301 50.1061 129.994 49.2348 129.381 48.6136C128.775 47.9924 127.854 47.6818 126.619 47.6818C125.339 47.6818 124.335 47.9621 123.608 48.5227C122.881 49.0833 122.369 49.6818 122.074 50.3182L119.528 49.4091C119.983 48.3485 120.589 47.5227 121.347 46.9318C122.112 46.3333 122.945 45.9167 123.847 45.6818C124.756 45.4394 125.65 45.3182 126.528 45.3182C127.089 45.3182 127.733 45.3864 128.46 45.5227C129.195 45.6515 129.903 45.9205 130.585 46.3295C131.275 46.7386 131.847 47.3561 132.301 48.1818C132.756 49.0076 132.983 50.1136 132.983 51.5V63H130.301V60.6364H130.165C129.983 61.0152 129.68 61.4205 129.256 61.8523C128.831 62.2841 128.267 62.6515 127.563 62.9545C126.858 63.2576 125.998 63.4091 124.983 63.4091ZM125.392 61C126.453 61 127.347 60.7917 128.074 60.375C128.809 59.9583 129.362 59.4205 129.733 58.7614C130.112 58.1023 130.301 57.4091 130.301 56.6818V54.2273C130.188 54.3636 129.938 54.4886 129.551 54.6023C129.172 54.7083 128.733 54.803 128.233 54.8864C127.741 54.9621 127.259 55.0303 126.79 55.0909C126.328 55.1439 125.953 55.1894 125.665 55.2273C124.968 55.3182 124.316 55.4659 123.71 55.6705C123.112 55.8674 122.627 56.1667 122.256 56.5682C121.892 56.9621 121.71 57.5 121.71 58.1818C121.71 59.1136 122.055 59.8182 122.744 60.2955C123.441 60.7652 124.324 61 125.392 61ZM146.878 45.5455H149.56V64.2727C149.56 65.3485 149.374 66.2803 149.003 67.0682C148.639 67.8561 148.086 68.4659 147.344 68.8977C146.609 69.3295 145.681 69.5455 144.56 69.5455C144.469 69.5455 144.378 69.5455 144.287 69.5455C144.196 69.5455 144.105 69.5455 144.014 69.5455V67.0455C144.105 67.0455 144.188 67.0455 144.264 67.0455C144.34 67.0455 144.423 67.0455 144.514 67.0455C145.332 67.0455 145.931 66.803 146.31 66.3182C146.688 65.8409 146.878 65.1591 146.878 64.2727V45.5455ZM148.196 42.6364C147.673 42.6364 147.223 42.4583 146.844 42.1023C146.473 41.7462 146.287 41.3182 146.287 40.8182C146.287 40.3182 146.473 39.8902 146.844 39.5341C147.223 39.178 147.673 39 148.196 39C148.719 39 149.166 39.178 149.537 39.5341C149.916 39.8902 150.105 40.3182 150.105 40.8182C150.105 41.3182 149.916 41.7462 149.537 42.1023C149.166 42.4583 148.719 42.6364 148.196 42.6364ZM165.472 55.8636V45.5455H168.153V63H165.472V60.0455H165.29C164.881 60.9318 164.244 61.6856 163.381 62.3068C162.517 62.9205 161.426 63.2273 160.108 63.2273C159.017 63.2273 158.047 62.9886 157.199 62.5114C156.35 62.0265 155.684 61.2992 155.199 60.3295C154.714 59.3523 154.472 58.1212 154.472 56.6364V45.5455H157.153V56.4545C157.153 57.7273 157.509 58.7424 158.222 59.5C158.941 60.2576 159.858 60.6364 160.972 60.6364C161.638 60.6364 162.316 60.4659 163.006 60.125C163.703 59.7841 164.286 59.2614 164.756 58.5568C165.233 57.8523 165.472 56.9545 165.472 55.8636ZM175.747 52.5V63H173.065V45.5455H175.656V48.2727H175.884C176.293 47.3864 176.914 46.6742 177.747 46.1364C178.581 45.5909 179.656 45.3182 180.974 45.3182C182.156 45.3182 183.19 45.5606 184.077 46.0455C184.963 46.5227 185.652 47.25 186.145 48.2273C186.637 49.197 186.884 50.4242 186.884 51.9091V63H184.202V52.0909C184.202 50.7197 183.846 49.6515 183.134 48.8864C182.421 48.1136 181.444 47.7273 180.202 47.7273C179.346 47.7273 178.581 47.9129 177.906 48.2841C177.24 48.6553 176.713 49.197 176.327 49.9091C175.94 50.6212 175.747 51.4848 175.747 52.5ZM199.375 45.5455V47.8182H190.33V45.5455H199.375ZM192.966 41.3636H195.648V58C195.648 58.7576 195.758 59.3258 195.977 59.7045C196.205 60.0758 196.492 60.3258 196.841 60.4545C197.197 60.5758 197.572 60.6364 197.966 60.6364C198.261 60.6364 198.504 60.6212 198.693 60.5909C198.883 60.553 199.034 60.5227 199.148 60.5L199.693 62.9091C199.511 62.9773 199.258 63.0455 198.932 63.1136C198.606 63.1894 198.193 63.2273 197.693 63.2273C196.936 63.2273 196.193 63.0644 195.466 62.7386C194.746 62.4129 194.148 61.9167 193.67 61.25C193.201 60.5833 192.966 59.7424 192.966 58.7273V41.3636ZM210.313 63.3636C208.737 63.3636 207.354 62.9886 206.165 62.2386C204.983 61.4886 204.059 60.4394 203.392 59.0909C202.733 57.7424 202.403 56.1667 202.403 54.3636C202.403 52.5455 202.733 50.9583 203.392 49.6023C204.059 48.2462 204.983 47.1932 206.165 46.4432C207.354 45.6932 208.737 45.3182 210.313 45.3182C211.888 45.3182 213.267 45.6932 214.449 46.4432C215.638 47.1932 216.563 48.2462 217.222 49.6023C217.888 50.9583 218.222 52.5455 218.222 54.3636C218.222 56.1667 217.888 57.7424 217.222 59.0909C216.563 60.4394 215.638 61.4886 214.449 62.2386C213.267 62.9886 211.888 63.3636 210.313 63.3636ZM210.313 60.9545C211.509 60.9545 212.494 60.6477 213.267 60.0341C214.04 59.4205 214.612 58.6136 214.983 57.6136C215.354 56.6136 215.54 55.5303 215.54 54.3636C215.54 53.197 215.354 52.1098 214.983 51.1023C214.612 50.0947 214.04 49.2803 213.267 48.6591C212.494 48.0379 211.509 47.7273 210.313 47.7273C209.116 47.7273 208.131 48.0379 207.358 48.6591C206.585 49.2803 206.013 50.0947 205.642 51.1023C205.271 52.1098 205.085 53.197 205.085 54.3636C205.085 55.5303 205.271 56.6136 205.642 57.6136C206.013 58.6136 206.585 59.4205 207.358 60.0341C208.131 60.6477 209.116 60.9545 210.313 60.9545ZM234.679 49.4545L232.27 50.1364C232.118 49.7348 231.895 49.3447 231.599 48.9659C231.312 48.5795 230.918 48.2614 230.418 48.0114C229.918 47.7614 229.277 47.6364 228.497 47.6364C227.429 47.6364 226.539 47.8826 225.827 48.375C225.122 48.8598 224.77 49.4773 224.77 50.2273C224.77 50.8939 225.012 51.4205 225.497 51.8068C225.982 52.1932 226.74 52.5152 227.77 52.7727L230.361 53.4091C231.921 53.7879 233.084 54.3674 233.849 55.1477C234.615 55.9205 234.997 56.9167 234.997 58.1364C234.997 59.1364 234.709 60.0303 234.134 60.8182C233.565 61.6061 232.77 62.2273 231.747 62.6818C230.724 63.1364 229.535 63.3636 228.179 63.3636C226.399 63.3636 224.925 62.9773 223.759 62.2045C222.592 61.4318 221.853 60.303 221.543 58.8182L224.088 58.1818C224.331 59.1212 224.789 59.8258 225.463 60.2955C226.145 60.7652 227.035 61 228.134 61C229.384 61 230.376 60.7348 231.111 60.2045C231.853 59.6667 232.224 59.0227 232.224 58.2727C232.224 57.6667 232.012 57.1591 231.588 56.75C231.164 56.3333 230.512 56.0227 229.634 55.8182L226.724 55.1364C225.126 54.7576 223.952 54.1705 223.202 53.375C222.459 52.572 222.088 51.5682 222.088 50.3636C222.088 49.3788 222.365 48.5076 222.918 47.75C223.478 46.9924 224.24 46.3977 225.202 45.9659C226.171 45.5341 227.27 45.3182 228.497 45.3182C230.224 45.3182 231.581 45.697 232.565 46.4545C233.558 47.2121 234.262 48.2121 234.679 49.4545ZM240.989 63.1818C240.428 63.1818 239.947 62.9811 239.545 62.5795C239.144 62.178 238.943 61.697 238.943 61.1364C238.943 60.5758 239.144 60.0947 239.545 59.6932C239.947 59.2917 240.428 59.0909 240.989 59.0909C241.549 59.0909 242.03 59.2917 242.432 59.6932C242.833 60.0947 243.034 60.5758 243.034 61.1364C243.034 61.5076 242.939 61.8485 242.75 62.1591C242.568 62.4697 242.322 62.7197 242.011 62.9091C241.708 63.0909 241.367 63.1818 240.989 63.1818ZM248.398 39.7273V41.7727C248.398 42.3939 248.284 43.0568 248.057 43.7614C247.837 44.4583 247.511 45.1364 247.08 45.7955C246.655 46.447 246.14 47.0152 245.534 47.5L244.08 46.3182C244.557 45.6364 244.97 44.928 245.318 44.1932C245.674 43.4508 245.852 42.6591 245.852 41.8182V39.7273H248.398ZM254.216 39.7273V41.7727C254.216 42.3939 254.102 43.0568 253.875 43.7614C253.655 44.4583 253.33 45.1364 252.898 45.7955C252.473 46.447 251.958 47.0152 251.352 47.5L249.898 46.3182C250.375 45.6364 250.788 44.928 251.136 44.1932C251.492 43.4508 251.67 42.6591 251.67 41.8182V39.7273H254.216Z" fill="white"/>
</svg>
