<svg width="359" height="32" viewBox="0 0 359 32" fill="none" xmlns="http://www.w3.org/2000/svg">
<mask id="path-1-outside-1_23_9056" maskUnits="userSpaceOnUse" x="-0.522705" y="-0.511353" width="359" height="33" fill="black">
<rect fill="white" x="-0.522705" y="-0.511353" width="359" height="33"/>
<path d="M1.00002 1.39774H5.20457L15.0909 25.5455H15.4318L25.3182 1.39774H29.5227V30.4886H26.2273V8.38637H25.9432L16.8523 30.4886H13.6705L4.57957 8.38637H4.29548V30.4886H1.00002V1.39774ZM36.586 30.4886V1.39774H54.1428V4.52274H40.1087V14.3523H53.2337V17.4773H40.1087V27.3636H54.3701V30.4886H36.586ZM83.5604 1.39774V30.4886H80.1513L64.299 7.64774H64.0149V30.4886H60.4922V1.39774H63.9013L79.8104 24.2955H80.0945V1.39774H83.5604ZM99.5867 30.4886H90.6094V1.39774H99.9844C102.806 1.39774 105.221 1.98012 107.229 3.1449C109.236 4.3002 110.775 5.96213 111.845 8.13069C112.915 10.2898 113.45 12.875 113.45 15.8864C113.45 18.9167 112.911 21.5256 111.831 23.7131C110.751 25.8911 109.179 27.5672 107.115 28.7415C105.051 29.9063 102.541 30.4886 99.5867 30.4886ZM94.1321 27.3636H99.3594C101.765 27.3636 103.758 26.8996 105.34 25.9716C106.921 25.0436 108.1 23.7225 108.876 22.0085C109.653 20.2945 110.041 18.2538 110.041 15.8864C110.041 13.5379 109.658 11.5161 108.891 9.82103C108.124 8.11649 106.978 6.80967 105.453 5.90058C103.929 4.98202 102.03 4.52274 99.7571 4.52274H94.1321V27.3636ZM143.905 15.9432C143.905 19.0114 143.351 21.6629 142.243 23.8977C141.135 26.1326 139.615 27.8561 137.683 29.0682C135.751 30.2803 133.545 30.8864 131.064 30.8864C128.583 30.8864 126.376 30.2803 124.445 29.0682C122.513 27.8561 120.993 26.1326 119.885 23.8977C118.777 21.6629 118.223 19.0114 118.223 15.9432C118.223 12.875 118.777 10.2235 119.885 7.98865C120.993 5.7538 122.513 4.03031 124.445 2.81819C126.376 1.60607 128.583 1.00001 131.064 1.00001C133.545 1.00001 135.751 1.60607 137.683 2.81819C139.615 4.03031 141.135 5.7538 142.243 7.98865C143.351 10.2235 143.905 12.875 143.905 15.9432ZM140.496 15.9432C140.496 13.4243 140.074 11.2983 139.232 9.56535C138.398 7.8324 137.267 6.52084 135.837 5.63069C134.416 4.74054 132.825 4.29546 131.064 4.29546C129.303 4.29546 127.707 4.74054 126.277 5.63069C124.857 6.52084 123.725 7.8324 122.882 9.56535C122.049 11.2983 121.632 13.4243 121.632 15.9432C121.632 18.4621 122.049 20.5881 122.882 22.321C123.725 24.054 124.857 25.3655 126.277 26.2557C127.707 27.1458 129.303 27.5909 131.064 27.5909C132.825 27.5909 134.416 27.1458 135.837 26.2557C137.267 25.3655 138.398 24.054 139.232 22.321C140.074 20.5881 140.496 18.4621 140.496 15.9432ZM148.862 30.4886V27.9318L164.544 4.52274H148.692V1.39774H168.749V3.95456L153.067 27.3636H168.919V30.4886H148.862ZM176.021 30.4886H172.328L183.01 1.39774H186.646L197.328 30.4886H193.635L184.942 6.00001H184.715L176.021 30.4886ZM177.385 19.125H192.271V22.25H177.385V19.125ZM214.303 30.4886H210.609L221.291 1.39774H224.928L235.609 30.4886H231.916L223.223 6.00001H222.996L214.303 30.4886ZM215.666 19.125H230.553V22.25H215.666V19.125ZM240.141 30.4886V1.39774H243.663V27.3636H257.186V30.4886H240.141ZM262.641 30.4886V1.39774H280.197V4.52274H266.163V14.3523H279.288V17.4773H266.163V27.3636H280.425V30.4886H262.641ZM286.547 30.4886V1.39774H296.376C298.649 1.39774 300.515 1.786 301.973 2.56251C303.431 3.32956 304.511 4.38543 305.212 5.73012C305.912 7.07482 306.263 8.60418 306.263 10.3182C306.263 12.0322 305.912 13.5521 305.212 14.8779C304.511 16.2036 303.436 17.2453 301.987 18.0029C300.538 18.751 298.687 19.125 296.433 19.125H288.479V15.9432H296.32C297.873 15.9432 299.123 15.7159 300.07 15.2614C301.026 14.8068 301.717 14.1629 302.143 13.3296C302.579 12.4868 302.797 11.483 302.797 10.3182C302.797 9.15342 302.579 8.13543 302.143 7.26421C301.708 6.393 301.012 5.72065 300.055 5.24717C299.099 4.76421 297.835 4.52274 296.263 4.52274H290.07V30.4886H286.547ZM300.24 17.4205L307.399 30.4886H303.308L296.263 17.4205H300.24ZM310.542 4.52274V1.39774H332.36V4.52274H323.212V30.4886H319.69V4.52274H310.542ZM335.592 30.4886H331.898L342.58 1.39774H346.217L356.898 30.4886H353.205L344.512 6.00001H344.285L335.592 30.4886ZM336.955 19.125H351.842V22.25H336.955V19.125Z"/>
</mask>
<path d="M1.00002 1.39774H5.20457L15.0909 25.5455H15.4318L25.3182 1.39774H29.5227V30.4886H26.2273V8.38637H25.9432L16.8523 30.4886H13.6705L4.57957 8.38637H4.29548V30.4886H1.00002V1.39774ZM36.586 30.4886V1.39774H54.1428V4.52274H40.1087V14.3523H53.2337V17.4773H40.1087V27.3636H54.3701V30.4886H36.586ZM83.5604 1.39774V30.4886H80.1513L64.299 7.64774H64.0149V30.4886H60.4922V1.39774H63.9013L79.8104 24.2955H80.0945V1.39774H83.5604ZM99.5867 30.4886H90.6094V1.39774H99.9844C102.806 1.39774 105.221 1.98012 107.229 3.1449C109.236 4.3002 110.775 5.96213 111.845 8.13069C112.915 10.2898 113.45 12.875 113.45 15.8864C113.45 18.9167 112.911 21.5256 111.831 23.7131C110.751 25.8911 109.179 27.5672 107.115 28.7415C105.051 29.9063 102.541 30.4886 99.5867 30.4886ZM94.1321 27.3636H99.3594C101.765 27.3636 103.758 26.8996 105.34 25.9716C106.921 25.0436 108.1 23.7225 108.876 22.0085C109.653 20.2945 110.041 18.2538 110.041 15.8864C110.041 13.5379 109.658 11.5161 108.891 9.82103C108.124 8.11649 106.978 6.80967 105.453 5.90058C103.929 4.98202 102.03 4.52274 99.7571 4.52274H94.1321V27.3636ZM143.905 15.9432C143.905 19.0114 143.351 21.6629 142.243 23.8977C141.135 26.1326 139.615 27.8561 137.683 29.0682C135.751 30.2803 133.545 30.8864 131.064 30.8864C128.583 30.8864 126.376 30.2803 124.445 29.0682C122.513 27.8561 120.993 26.1326 119.885 23.8977C118.777 21.6629 118.223 19.0114 118.223 15.9432C118.223 12.875 118.777 10.2235 119.885 7.98865C120.993 5.7538 122.513 4.03031 124.445 2.81819C126.376 1.60607 128.583 1.00001 131.064 1.00001C133.545 1.00001 135.751 1.60607 137.683 2.81819C139.615 4.03031 141.135 5.7538 142.243 7.98865C143.351 10.2235 143.905 12.875 143.905 15.9432ZM140.496 15.9432C140.496 13.4243 140.074 11.2983 139.232 9.56535C138.398 7.8324 137.267 6.52084 135.837 5.63069C134.416 4.74054 132.825 4.29546 131.064 4.29546C129.303 4.29546 127.707 4.74054 126.277 5.63069C124.857 6.52084 123.725 7.8324 122.882 9.56535C122.049 11.2983 121.632 13.4243 121.632 15.9432C121.632 18.4621 122.049 20.5881 122.882 22.321C123.725 24.054 124.857 25.3655 126.277 26.2557C127.707 27.1458 129.303 27.5909 131.064 27.5909C132.825 27.5909 134.416 27.1458 135.837 26.2557C137.267 25.3655 138.398 24.054 139.232 22.321C140.074 20.5881 140.496 18.4621 140.496 15.9432ZM148.862 30.4886V27.9318L164.544 4.52274H148.692V1.39774H168.749V3.95456L153.067 27.3636H168.919V30.4886H148.862ZM176.021 30.4886H172.328L183.01 1.39774H186.646L197.328 30.4886H193.635L184.942 6.00001H184.715L176.021 30.4886ZM177.385 19.125H192.271V22.25H177.385V19.125ZM214.303 30.4886H210.609L221.291 1.39774H224.928L235.609 30.4886H231.916L223.223 6.00001H222.996L214.303 30.4886ZM215.666 19.125H230.553V22.25H215.666V19.125ZM240.141 30.4886V1.39774H243.663V27.3636H257.186V30.4886H240.141ZM262.641 30.4886V1.39774H280.197V4.52274H266.163V14.3523H279.288V17.4773H266.163V27.3636H280.425V30.4886H262.641ZM286.547 30.4886V1.39774H296.376C298.649 1.39774 300.515 1.786 301.973 2.56251C303.431 3.32956 304.511 4.38543 305.212 5.73012C305.912 7.07482 306.263 8.60418 306.263 10.3182C306.263 12.0322 305.912 13.5521 305.212 14.8779C304.511 16.2036 303.436 17.2453 301.987 18.0029C300.538 18.751 298.687 19.125 296.433 19.125H288.479V15.9432H296.32C297.873 15.9432 299.123 15.7159 300.07 15.2614C301.026 14.8068 301.717 14.1629 302.143 13.3296C302.579 12.4868 302.797 11.483 302.797 10.3182C302.797 9.15342 302.579 8.13543 302.143 7.26421C301.708 6.393 301.012 5.72065 300.055 5.24717C299.099 4.76421 297.835 4.52274 296.263 4.52274H290.07V30.4886H286.547ZM300.24 17.4205L307.399 30.4886H303.308L296.263 17.4205H300.24ZM310.542 4.52274V1.39774H332.36V4.52274H323.212V30.4886H319.69V4.52274H310.542ZM335.592 30.4886H331.898L342.58 1.39774H346.217L356.898 30.4886H353.205L344.512 6.00001H344.285L335.592 30.4886ZM336.955 19.125H351.842V22.25H336.955V19.125Z" fill="white"/>
<path d="M1.00002 1.39774V0.397738H2.24113e-05V1.39774H1.00002ZM5.20457 1.39774L6.13001 1.01885L5.87572 0.397738H5.20457V1.39774ZM15.0909 25.5455L14.1655 25.9244L14.4198 26.5455H15.0909V25.5455ZM15.4318 25.5455V26.5455H16.103L16.3573 25.9244L15.4318 25.5455ZM25.3182 1.39774V0.397738H24.6471L24.3928 1.01885L25.3182 1.39774ZM29.5228 1.39774H30.5228V0.397738H29.5228V1.39774ZM29.5228 30.4886V31.4886H30.5228V30.4886H29.5228ZM26.2273 30.4886H25.2273V31.4886H26.2273V30.4886ZM26.2273 8.38638H27.2273V7.38638H26.2273V8.38638ZM25.9432 8.38638V7.38638H25.2732L25.0184 8.00598L25.9432 8.38638ZM16.8523 30.4886V31.4886H17.5223L17.7771 30.869L16.8523 30.4886ZM13.6705 30.4886L12.7457 30.869L13.0005 31.4886H13.6705V30.4886ZM4.57957 8.38638L5.50439 8.00598L5.24954 7.38638H4.57957V8.38638ZM4.29548 8.38638V7.38638H3.29548V8.38638H4.29548ZM4.29548 30.4886V31.4886H5.29548V30.4886H4.29548ZM1.00002 30.4886H2.24113e-05V31.4886H1.00002V30.4886ZM1.00002 1.39774V2.39774H5.20457V1.39774V0.397738H1.00002V1.39774ZM5.20457 1.39774L4.27913 1.77662L14.1655 25.9244L15.0909 25.5455L16.0164 25.1666L6.13001 1.01885L5.20457 1.39774ZM15.0909 25.5455V26.5455H15.4318V25.5455V24.5455H15.0909V25.5455ZM15.4318 25.5455L16.3573 25.9244L26.2436 1.77662L25.3182 1.39774L24.3928 1.01885L14.5064 25.1666L15.4318 25.5455ZM25.3182 1.39774V2.39774H29.5228V1.39774V0.397738H25.3182V1.39774ZM29.5228 1.39774H28.5228V30.4886H29.5228H30.5228V1.39774H29.5228ZM29.5228 30.4886V29.4886H26.2273V30.4886V31.4886H29.5228V30.4886ZM26.2273 30.4886H27.2273V8.38638H26.2273H25.2273V30.4886H26.2273ZM26.2273 8.38638V7.38638H25.9432V8.38638V9.38638H26.2273V8.38638ZM25.9432 8.38638L25.0184 8.00598L15.9275 30.1083L16.8523 30.4886L17.7771 30.869L26.868 8.76677L25.9432 8.38638ZM16.8523 30.4886V29.4886H13.6705V30.4886V31.4886H16.8523V30.4886ZM13.6705 30.4886L14.5953 30.1083L5.50439 8.00598L4.57957 8.38638L3.65474 8.76677L12.7457 30.869L13.6705 30.4886ZM4.57957 8.38638V7.38638H4.29548V8.38638V9.38638H4.57957V8.38638ZM4.29548 8.38638H3.29548V30.4886H4.29548H5.29548V8.38638H4.29548ZM4.29548 30.4886V29.4886H1.00002V30.4886V31.4886H4.29548V30.4886ZM1.00002 30.4886H2.00002V1.39774H1.00002H2.24113e-05V30.4886H1.00002ZM36.586 30.4886H35.586V31.4886H36.586V30.4886ZM36.586 1.39774V0.397738H35.586V1.39774H36.586ZM54.1428 1.39774H55.1428V0.397738H54.1428V1.39774ZM54.1428 4.52274V5.52274H55.1428V4.52274H54.1428ZM40.1087 4.52274V3.52274H39.1087V4.52274H40.1087ZM40.1087 14.3523H39.1087V15.3523H40.1087V14.3523ZM53.2337 14.3523H54.2337V13.3523H53.2337V14.3523ZM53.2337 17.4773V18.4773H54.2337V17.4773H53.2337ZM40.1087 17.4773V16.4773H39.1087V17.4773H40.1087ZM40.1087 27.3636H39.1087V28.3636H40.1087V27.3636ZM54.3701 27.3636H55.3701V26.3636H54.3701V27.3636ZM54.3701 30.4886V31.4886H55.3701V30.4886H54.3701ZM36.586 30.4886H37.586V1.39774H36.586H35.586V30.4886H36.586ZM36.586 1.39774V2.39774H54.1428V1.39774V0.397738H36.586V1.39774ZM54.1428 1.39774H53.1428V4.52274H54.1428H55.1428V1.39774H54.1428ZM54.1428 4.52274V3.52274H40.1087V4.52274V5.52274H54.1428V4.52274ZM40.1087 4.52274H39.1087V14.3523H40.1087H41.1087V4.52274H40.1087ZM40.1087 14.3523V15.3523H53.2337V14.3523V13.3523H40.1087V14.3523ZM53.2337 14.3523H52.2337V17.4773H53.2337H54.2337V14.3523H53.2337ZM53.2337 17.4773V16.4773H40.1087V17.4773V18.4773H53.2337V17.4773ZM40.1087 17.4773H39.1087V27.3636H40.1087H41.1087V17.4773H40.1087ZM40.1087 27.3636V28.3636H54.3701V27.3636V26.3636H40.1087V27.3636ZM54.3701 27.3636H53.3701V30.4886H54.3701H55.3701V27.3636H54.3701ZM54.3701 30.4886V29.4886H36.586V30.4886V31.4886H54.3701V30.4886ZM83.5604 1.39774H84.5604V0.397738H83.5604V1.39774ZM83.5604 30.4886V31.4886H84.5604V30.4886H83.5604ZM80.1513 30.4886L79.3298 31.0588L79.6281 31.4886H80.1513V30.4886ZM64.299 7.64774L65.1206 7.07757L64.8222 6.64774H64.299V7.64774ZM64.0149 7.64774V6.64774H63.0149V7.64774H64.0149ZM64.0149 30.4886V31.4886H65.0149V30.4886H64.0149ZM60.4922 30.4886H59.4922V31.4886H60.4922V30.4886ZM60.4922 1.39774V0.397738H59.4922V1.39774H60.4922ZM63.9013 1.39774L64.7225 0.82715L64.4242 0.397738H63.9013V1.39774ZM79.8104 24.2955L78.9892 24.8661L79.2875 25.2955H79.8104V24.2955ZM80.0945 24.2955V25.2955H81.0945V24.2955H80.0945ZM80.0945 1.39774V0.397738H79.0945V1.39774H80.0945ZM83.5604 1.39774H82.5604V30.4886H83.5604H84.5604V1.39774H83.5604ZM83.5604 30.4886V29.4886H80.1513V30.4886V31.4886H83.5604V30.4886ZM80.1513 30.4886L80.9728 29.9185L65.1206 7.07757L64.299 7.64774L63.4775 8.2179L79.3298 31.0588L80.1513 30.4886ZM64.299 7.64774V6.64774H64.0149V7.64774V8.64774H64.299V7.64774ZM64.0149 7.64774H63.0149V30.4886H64.0149H65.0149V7.64774H64.0149ZM64.0149 30.4886V29.4886H60.4922V30.4886V31.4886H64.0149V30.4886ZM60.4922 30.4886H61.4922V1.39774H60.4922H59.4922V30.4886H60.4922ZM60.4922 1.39774V2.39774H63.9013V1.39774V0.397738H60.4922V1.39774ZM63.9013 1.39774L63.0801 1.96832L78.9892 24.8661L79.8104 24.2955L80.6316 23.7249L64.7225 0.82715L63.9013 1.39774ZM79.8104 24.2955V25.2955H80.0945V24.2955V23.2955H79.8104V24.2955ZM80.0945 24.2955H81.0945V1.39774H80.0945H79.0945V24.2955H80.0945ZM80.0945 1.39774V2.39774H83.5604V1.39774V0.397738H80.0945V1.39774ZM90.6094 30.4886H89.6094V31.4886H90.6094V30.4886ZM90.6094 1.39774V0.397738H89.6094V1.39774H90.6094ZM107.229 3.1449L106.727 4.00986L106.73 4.01163L107.229 3.1449ZM111.845 8.13069L110.948 8.5732L110.949 8.57476L111.845 8.13069ZM111.831 23.7131L112.727 24.1572L112.728 24.1556L111.831 23.7131ZM107.115 28.7415L107.606 29.6124L107.609 29.6107L107.115 28.7415ZM94.1321 27.3636H93.1321V28.3636H94.1321V27.3636ZM105.34 25.9716L104.833 25.1091L105.34 25.9716ZM108.891 9.82103L107.979 10.2314L107.98 10.2333L108.891 9.82103ZM105.453 5.90058L104.937 6.75714L104.941 6.75948L105.453 5.90058ZM94.1321 4.52274V3.52274H93.1321V4.52274H94.1321ZM99.5867 30.4886V29.4886H90.6094V30.4886V31.4886H99.5867V30.4886ZM90.6094 30.4886H91.6094V1.39774H90.6094H89.6094V30.4886H90.6094ZM90.6094 1.39774V2.39774H99.9844V1.39774V0.397738H90.6094V1.39774ZM99.9844 1.39774V2.39774C102.668 2.39774 104.902 2.95081 106.727 4.00986L107.229 3.1449L107.731 2.27994C105.541 1.00944 102.945 0.397738 99.9844 0.397738V1.39774ZM107.229 3.1449L106.73 4.01163C108.558 5.06358 109.962 6.57409 110.948 8.5732L111.845 8.13069L112.742 7.68818C111.588 5.35017 109.915 3.53682 107.727 2.27817L107.229 3.1449ZM111.845 8.13069L110.949 8.57476C111.936 10.5657 112.45 12.9915 112.45 15.8864H113.45H114.45C114.45 12.7585 113.895 10.0139 112.741 7.68662L111.845 8.13069ZM113.45 15.8864H112.45C112.45 18.7996 111.931 21.2499 110.934 23.2705L111.831 23.7131L112.728 24.1556C113.89 21.8012 114.45 19.0338 114.45 15.8864H113.45ZM111.831 23.7131L110.935 23.269C109.942 25.2729 108.508 26.799 106.621 27.8723L107.115 28.7415L107.609 29.6107C109.851 28.3355 111.561 26.5093 112.727 24.1572L111.831 23.7131ZM107.115 28.7415L106.624 27.8706C104.742 28.9323 102.411 29.4886 99.5867 29.4886V30.4886V31.4886C102.672 31.4886 105.359 30.8802 107.606 29.6124L107.115 28.7415ZM94.1321 27.3636V28.3636H99.3594V27.3636V26.3636H94.1321V27.3636ZM99.3594 27.3636V28.3636C101.889 28.3636 104.07 27.876 105.846 26.8341L105.34 25.9716L104.833 25.1091C103.446 25.9232 101.641 26.3636 99.3594 26.3636V27.3636ZM105.34 25.9716L105.846 26.8341C107.61 25.7986 108.928 24.3181 109.787 22.4212L108.876 22.0085L107.966 21.5959C107.272 23.127 106.232 24.2885 104.833 25.1091L105.34 25.9716ZM108.876 22.0085L109.787 22.4212C110.636 20.5486 111.041 18.3605 111.041 15.8864H110.041H109.041C109.041 18.1471 108.67 20.0404 107.966 21.5959L108.876 22.0085ZM110.041 15.8864H111.041C111.041 13.4318 110.641 11.2626 109.802 9.40876L108.891 9.82103L107.98 10.2333C108.675 11.7696 109.041 13.644 109.041 15.8864H110.041ZM108.891 9.82103L109.803 9.41067C108.956 7.52966 107.676 6.06151 105.965 5.04168L105.453 5.90058L104.941 6.75948C106.28 7.55783 107.291 8.70331 107.979 10.2314L108.891 9.82103ZM105.453 5.90058L105.969 5.04403C104.251 4.00896 102.162 3.52274 99.7571 3.52274V4.52274V5.52274C101.898 5.52274 103.606 5.95508 104.937 6.75713L105.453 5.90058ZM99.7571 4.52274V3.52274H94.1321V4.52274V5.52274H99.7571V4.52274ZM94.1321 4.52274H93.1321V27.3636H94.1321H95.1321V4.52274H94.1321ZM142.243 23.8977L141.347 23.4536V23.4536L142.243 23.8977ZM137.683 29.0682L138.215 29.9153V29.9153L137.683 29.0682ZM124.445 29.0682L123.913 29.9153V29.9153L124.445 29.0682ZM119.885 23.8977L120.781 23.4536V23.4536L119.885 23.8977ZM119.885 7.98865L118.989 7.54447L119.885 7.98865ZM137.683 2.81819L138.215 1.97113V1.97113L137.683 2.81819ZM142.243 7.98865L141.347 8.43282V8.43282L142.243 7.98865ZM139.232 9.56535L138.33 9.99873L138.332 10.0027L139.232 9.56535ZM135.837 5.63069L135.306 6.47806L135.308 6.47964L135.837 5.63069ZM126.277 5.63069L125.749 4.78174L125.746 4.78333L126.277 5.63069ZM122.882 9.56535L121.983 9.12799L121.981 9.13198L122.882 9.56535ZM122.882 22.321L121.981 22.7544L121.983 22.7584L122.882 22.321ZM126.277 26.2557L125.746 27.1031L125.749 27.1046L126.277 26.2557ZM135.837 26.2557L135.308 25.4067L135.306 25.4083L135.837 26.2557ZM139.232 22.321L138.332 21.8837L138.33 21.8877L139.232 22.321ZM143.905 15.9432H142.905C142.905 18.8921 142.373 21.3849 141.347 23.4536L142.243 23.8977L143.139 24.3419C144.329 21.9409 144.905 19.1307 144.905 15.9432H143.905ZM142.243 23.8977L141.347 23.4536C140.313 25.5391 138.913 27.1162 137.152 28.2211L137.683 29.0682L138.215 29.9153C140.317 28.5959 141.957 26.7261 143.139 24.3419L142.243 23.8977ZM137.683 29.0682L137.152 28.2211C135.393 29.3246 133.374 29.8864 131.064 29.8864V30.8864V31.8864C133.716 31.8864 136.11 31.2361 138.215 29.9153L137.683 29.0682ZM131.064 30.8864V29.8864C128.754 29.8864 126.735 29.3246 124.976 28.2211L124.445 29.0682L123.913 29.9153C126.018 31.2361 128.412 31.8864 131.064 31.8864V30.8864ZM124.445 29.0682L124.976 28.2211C123.215 27.1162 121.815 25.5391 120.781 23.4536L119.885 23.8977L118.989 24.3419C120.171 26.7261 121.81 28.5959 123.913 29.9153L124.445 29.0682ZM119.885 23.8977L120.781 23.4536C119.755 21.3849 119.223 18.8921 119.223 15.9432H118.223H117.223C117.223 19.1307 117.799 21.9409 118.989 24.3419L119.885 23.8977ZM118.223 15.9432H119.223C119.223 12.9943 119.755 10.5015 120.781 8.43282L119.885 7.98865L118.989 7.54447C117.799 9.9455 117.223 12.7557 117.223 15.9432H118.223ZM119.885 7.98865L120.781 8.43282C121.815 6.34729 123.215 4.77019 124.976 3.66526L124.445 2.81819L123.913 1.97113C121.81 3.29044 120.171 5.16031 118.989 7.54447L119.885 7.98865ZM124.445 2.81819L124.976 3.66526C126.735 2.56181 128.754 2.00001 131.064 2.00001V1.00001V9.53674e-06C128.412 9.53674e-06 126.018 0.650333 123.913 1.97113L124.445 2.81819ZM131.064 1.00001V2.00001C133.374 2.00001 135.393 2.56181 137.152 3.66526L137.683 2.81819L138.215 1.97113C136.11 0.650333 133.716 9.53674e-06 131.064 9.53674e-06V1.00001ZM137.683 2.81819L137.152 3.66526C138.913 4.77019 140.313 6.34729 141.347 8.43282L142.243 7.98865L143.139 7.54447C141.957 5.16031 140.317 3.29044 138.215 1.97113L137.683 2.81819ZM142.243 7.98865L141.347 8.43282C142.373 10.5015 142.905 12.9943 142.905 15.9432H143.905H144.905C144.905 12.7557 144.329 9.9455 143.139 7.54447L142.243 7.98865ZM140.496 15.9432H141.496C141.496 13.3174 141.057 11.0324 140.131 9.12799L139.232 9.56535L138.332 10.0027C139.092 11.5642 139.496 13.5311 139.496 15.9432H140.496ZM139.232 9.56535L140.133 9.13198C139.229 7.25277 137.978 5.78587 136.365 4.78175L135.837 5.63069L135.308 6.47964C136.555 7.25582 137.567 8.41202 138.33 9.99872L139.232 9.56535ZM135.837 5.63069L136.368 4.78333C134.78 3.78827 133.003 3.29547 131.064 3.29547V4.29547V5.29547C132.647 5.29547 134.053 5.69282 135.306 6.47806L135.837 5.63069ZM131.064 4.29547V3.29547C129.125 3.29547 127.344 3.78824 125.749 4.78175L126.277 5.63069L126.805 6.47964C128.069 5.69284 129.48 5.29547 131.064 5.29547V4.29547ZM126.277 5.63069L125.746 4.78333C124.144 5.78713 122.895 7.25231 121.983 9.12799L122.882 9.56535L123.781 10.0027C124.555 8.41248 125.569 7.25455 126.808 6.47806L126.277 5.63069ZM122.882 9.56535L121.981 9.13198C121.066 11.0353 120.632 13.3188 120.632 15.9432H121.632H122.632C122.632 13.5297 123.032 11.5613 123.783 9.99872L122.882 9.56535ZM121.632 15.9432H120.632C120.632 18.5676 121.066 20.8511 121.981 22.7544L122.882 22.321L123.783 21.8877C123.032 20.3251 122.632 18.3567 122.632 15.9432H121.632ZM122.882 22.321L121.983 22.7584C122.895 24.6341 124.144 26.0993 125.746 27.1031L126.277 26.2557L126.808 25.4083C125.569 24.6318 124.555 23.4739 123.781 21.8837L122.882 22.321ZM126.277 26.2557L125.749 27.1046C127.344 28.0981 129.125 28.5909 131.064 28.5909V27.5909V26.5909C129.48 26.5909 128.069 26.1935 126.805 25.4067L126.277 26.2557ZM131.064 27.5909V28.5909C133.003 28.5909 134.78 28.0981 136.368 27.1031L135.837 26.2557L135.306 25.4083C134.053 26.1936 132.647 26.5909 131.064 26.5909V27.5909ZM135.837 26.2557L136.365 27.1046C137.978 26.1005 139.229 24.6336 140.133 22.7544L139.232 22.321L138.33 21.8877C137.567 23.4744 136.555 24.6306 135.308 25.4067L135.837 26.2557ZM139.232 22.321L140.131 22.7584C141.057 20.854 141.496 18.5689 141.496 15.9432H140.496H139.496C139.496 18.3553 139.092 20.3222 138.332 21.8837L139.232 22.321ZM148.862 30.4886H147.862V31.4886H148.862V30.4886ZM148.862 27.9318L148.031 27.3753L147.862 27.6278V27.9318H148.862ZM164.544 4.52274L165.375 5.0793L166.418 3.52274H164.544V4.52274ZM148.692 4.52274H147.692V5.52274H148.692V4.52274ZM148.692 1.39774V0.397738H147.692V1.39774H148.692ZM168.749 1.39774H169.749V0.397738H168.749V1.39774ZM168.749 3.95456L169.579 4.51112L169.749 4.25855V3.95456H168.749ZM153.067 27.3636L152.236 26.8071L151.193 28.3636H153.067V27.3636ZM168.919 27.3636H169.919V26.3636H168.919V27.3636ZM168.919 30.4886V31.4886H169.919V30.4886H168.919ZM148.862 30.4886H149.862V27.9318H148.862H147.862V30.4886H148.862ZM148.862 27.9318L149.693 28.4884L165.375 5.0793L164.544 4.52274L163.713 3.96618L148.031 27.3753L148.862 27.9318ZM164.544 4.52274V3.52274H148.692V4.52274V5.52274H164.544V4.52274ZM148.692 4.52274H149.692V1.39774H148.692H147.692V4.52274H148.692ZM148.692 1.39774V2.39774H168.749V1.39774V0.397738H148.692V1.39774ZM168.749 1.39774H167.749V3.95456H168.749H169.749V1.39774H168.749ZM168.749 3.95456L167.918 3.39799L152.236 26.8071L153.067 27.3636L153.898 27.9202L169.579 4.51112L168.749 3.95456ZM153.067 27.3636V28.3636H168.919V27.3636V26.3636H153.067V27.3636ZM168.919 27.3636H167.919V30.4886H168.919H169.919V27.3636H168.919ZM168.919 30.4886V29.4886H148.862V30.4886V31.4886H168.919V30.4886ZM176.021 30.4886V31.4886H176.727L176.964 30.8232L176.021 30.4886ZM172.328 30.4886L171.389 30.144L170.896 31.4886H172.328V30.4886ZM183.01 1.39774V0.397738H182.312L182.071 1.05305L183.01 1.39774ZM186.646 1.39774L187.585 1.05305L187.344 0.397738H186.646V1.39774ZM197.328 30.4886V31.4886H198.761L198.267 30.144L197.328 30.4886ZM193.635 30.4886L192.693 30.8232L192.929 31.4886H193.635V30.4886ZM184.942 6.00001L185.884 5.66548L185.648 5.00001H184.942V6.00001ZM184.715 6.00001V5.00001H184.008L183.772 5.66548L184.715 6.00001ZM177.385 19.125V18.125H176.385V19.125H177.385ZM192.271 19.125H193.271V18.125H192.271V19.125ZM192.271 22.25V23.25H193.271V22.25H192.271ZM177.385 22.25H176.385V23.25H177.385V22.25ZM176.021 30.4886V29.4886H172.328V30.4886V31.4886H176.021V30.4886ZM172.328 30.4886L173.267 30.8333L183.949 1.74242L183.01 1.39774L182.071 1.05305L171.389 30.144L172.328 30.4886ZM183.01 1.39774V2.39774H186.646V1.39774V0.397738H183.01V1.39774ZM186.646 1.39774L185.708 1.74242L196.389 30.8333L197.328 30.4886L198.267 30.144L187.585 1.05305L186.646 1.39774ZM197.328 30.4886V29.4886H193.635V30.4886V31.4886H197.328V30.4886ZM193.635 30.4886L194.577 30.1541L185.884 5.66548L184.942 6.00001L183.999 6.33455L192.693 30.8232L193.635 30.4886ZM184.942 6.00001V5.00001H184.715V6.00001V7.00001H184.942V6.00001ZM184.715 6.00001L183.772 5.66548L175.079 30.1541L176.021 30.4886L176.964 30.8232L185.657 6.33455L184.715 6.00001ZM177.385 19.125V20.125H192.271V19.125V18.125H177.385V19.125ZM192.271 19.125H191.271V22.25H192.271H193.271V19.125H192.271ZM192.271 22.25V21.25H177.385V22.25V23.25H192.271V22.25ZM177.385 22.25H178.385V19.125H177.385H176.385V22.25H177.385ZM214.303 30.4886V31.4886H215.009L215.245 30.8232L214.303 30.4886ZM210.609 30.4886L209.671 30.144L209.177 31.4886H210.609V30.4886ZM221.291 1.39774V0.397738H220.593L220.352 1.05305L221.291 1.39774ZM224.928 1.39774L225.866 1.05305L225.626 0.397738H224.928V1.39774ZM235.609 30.4886V31.4886H237.042L236.548 30.144L235.609 30.4886ZM231.916 30.4886L230.974 30.8232L231.21 31.4886H231.916V30.4886ZM223.223 6.00001L224.165 5.66548L223.929 5.00001H223.223V6.00001ZM222.996 6.00001V5.00001H222.29L222.053 5.66548L222.996 6.00001ZM215.666 19.125V18.125H214.666V19.125H215.666ZM230.553 19.125H231.553V18.125H230.553V19.125ZM230.553 22.25V23.25H231.553V22.25H230.553ZM215.666 22.25H214.666V23.25H215.666V22.25ZM214.303 30.4886V29.4886H210.609V30.4886V31.4886H214.303V30.4886ZM210.609 30.4886L211.548 30.8333L222.23 1.74242L221.291 1.39774L220.352 1.05305L209.671 30.144L210.609 30.4886ZM221.291 1.39774V2.39774H224.928V1.39774V0.397738H221.291V1.39774ZM224.928 1.39774L223.989 1.74242L234.671 30.8333L235.609 30.4886L236.548 30.144L225.866 1.05305L224.928 1.39774ZM235.609 30.4886V29.4886H231.916V30.4886V31.4886H235.609V30.4886ZM231.916 30.4886L232.859 30.1541L224.165 5.66548L223.223 6.00001L222.281 6.33455L230.974 30.8232L231.916 30.4886ZM223.223 6.00001V5.00001H222.996V6.00001V7.00001H223.223V6.00001ZM222.996 6.00001L222.053 5.66548L213.36 30.1541L214.303 30.4886L215.245 30.8232L223.938 6.33455L222.996 6.00001ZM215.666 19.125V20.125H230.553V19.125V18.125H215.666V19.125ZM230.553 19.125H229.553V22.25H230.553H231.553V19.125H230.553ZM230.553 22.25V21.25H215.666V22.25V23.25H230.553V22.25ZM215.666 22.25H216.666V19.125H215.666H214.666V22.25H215.666ZM240.141 30.4886H239.141V31.4886H240.141V30.4886ZM240.141 1.39774V0.397738H239.141V1.39774H240.141ZM243.663 1.39774H244.663V0.397738H243.663V1.39774ZM243.663 27.3636H242.663V28.3636H243.663V27.3636ZM257.186 27.3636H258.186V26.3636H257.186V27.3636ZM257.186 30.4886V31.4886H258.186V30.4886H257.186ZM240.141 30.4886H241.141V1.39774H240.141H239.141V30.4886H240.141ZM240.141 1.39774V2.39774H243.663V1.39774V0.397738H240.141V1.39774ZM243.663 1.39774H242.663V27.3636H243.663H244.663V1.39774H243.663ZM243.663 27.3636V28.3636H257.186V27.3636V26.3636H243.663V27.3636ZM257.186 27.3636H256.186V30.4886H257.186H258.186V27.3636H257.186ZM257.186 30.4886V29.4886H240.141V30.4886V31.4886H257.186V30.4886ZM262.641 30.4886H261.641V31.4886H262.641V30.4886ZM262.641 1.39774V0.397738H261.641V1.39774H262.641ZM280.197 1.39774H281.197V0.397738H280.197V1.39774ZM280.197 4.52274V5.52274H281.197V4.52274H280.197ZM266.163 4.52274V3.52274H265.163V4.52274H266.163ZM266.163 14.3523H265.163V15.3523H266.163V14.3523ZM279.288 14.3523H280.288V13.3523H279.288V14.3523ZM279.288 17.4773V18.4773H280.288V17.4773H279.288ZM266.163 17.4773V16.4773H265.163V17.4773H266.163ZM266.163 27.3636H265.163V28.3636H266.163V27.3636ZM280.425 27.3636H281.425V26.3636H280.425V27.3636ZM280.425 30.4886V31.4886H281.425V30.4886H280.425ZM262.641 30.4886H263.641V1.39774H262.641H261.641V30.4886H262.641ZM262.641 1.39774V2.39774H280.197V1.39774V0.397738H262.641V1.39774ZM280.197 1.39774H279.197V4.52274H280.197H281.197V1.39774H280.197ZM280.197 4.52274V3.52274H266.163V4.52274V5.52274H280.197V4.52274ZM266.163 4.52274H265.163V14.3523H266.163H267.163V4.52274H266.163ZM266.163 14.3523V15.3523H279.288V14.3523V13.3523H266.163V14.3523ZM279.288 14.3523H278.288V17.4773H279.288H280.288V14.3523H279.288ZM279.288 17.4773V16.4773H266.163V17.4773V18.4773H279.288V17.4773ZM266.163 17.4773H265.163V27.3636H266.163H267.163V17.4773H266.163ZM266.163 27.3636V28.3636H280.425V27.3636V26.3636H266.163V27.3636ZM280.425 27.3636H279.425V30.4886H280.425H281.425V27.3636H280.425ZM280.425 30.4886V29.4886H262.641V30.4886V31.4886H280.425V30.4886ZM286.547 30.4886H285.547V31.4886H286.547V30.4886ZM286.547 1.39774V0.397738H285.547V1.39774H286.547ZM301.973 2.56251L301.503 3.44519L301.508 3.44755L301.973 2.56251ZM305.212 5.73013L304.325 6.19226V6.19226L305.212 5.73013ZM305.212 14.8779L304.328 14.4105V14.4105L305.212 14.8779ZM301.987 18.0029L302.446 18.8914L302.451 18.889L301.987 18.0029ZM288.479 19.125H287.479V20.125H288.479V19.125ZM288.479 15.9432V14.9432H287.479V15.9432H288.479ZM300.07 15.2614L299.64 14.3582L299.637 14.3598L300.07 15.2614ZM302.143 13.3296L301.255 12.8704L301.253 12.8743L302.143 13.3296ZM300.055 5.24717L299.605 6.13985L299.612 6.14336L300.055 5.24717ZM290.07 4.52274V3.52274H289.07V4.52274H290.07ZM290.07 30.4886V31.4886H291.07V30.4886H290.07ZM300.24 17.4205L301.117 16.94L300.832 16.4205H300.24V17.4205ZM307.399 30.4886V31.4886H309.087L308.276 30.0082L307.399 30.4886ZM303.308 30.4886L302.428 30.9632L302.711 31.4886H303.308V30.4886ZM296.263 17.4205V16.4205H294.588L295.383 17.895L296.263 17.4205ZM286.547 30.4886H287.547V1.39774H286.547H285.547V30.4886H286.547ZM286.547 1.39774V2.39774H296.376V1.39774V0.397738H286.547V1.39774ZM296.376 1.39774V2.39774C298.544 2.39774 300.233 2.76916 301.503 3.44518L301.973 2.56251L302.443 1.67984C300.796 0.802828 298.755 0.397738 296.376 0.397738V1.39774ZM301.973 2.56251L301.508 3.44755C302.802 4.12843 303.726 5.04389 304.325 6.19226L305.212 5.73013L306.098 5.26799C305.295 3.72696 304.061 2.53068 302.439 1.67747L301.973 2.56251ZM305.212 5.73013L304.325 6.19226C304.942 7.37658 305.263 8.74389 305.263 10.3182H306.263H307.263C307.263 8.46447 306.883 6.77306 306.098 5.26799L305.212 5.73013ZM306.263 10.3182H305.263C305.263 11.8928 304.942 13.2482 304.328 14.4105L305.212 14.8779L306.096 15.3452C306.883 13.856 307.263 12.1716 307.263 10.3182H306.263ZM305.212 14.8779L304.328 14.4105C303.73 15.5411 302.81 16.444 301.524 17.1167L301.987 18.0029L302.451 18.889C304.062 18.0465 305.292 16.8661 306.096 15.3452L305.212 14.8779ZM301.987 18.0029L301.528 17.1143C300.265 17.7666 298.585 18.125 296.433 18.125V19.125V20.125C298.789 20.125 300.812 19.7353 302.446 18.8914L301.987 18.0029ZM296.433 19.125V18.125H288.479V19.125V20.125H296.433V19.125ZM288.479 19.125H289.479V15.9432H288.479H287.479V19.125H288.479ZM288.479 15.9432V16.9432H296.32V15.9432V14.9432H288.479V15.9432ZM296.32 15.9432V16.9432C297.957 16.9432 299.371 16.7057 300.502 16.1629L300.07 15.2614L299.637 14.3598C298.874 14.7261 297.789 14.9432 296.32 14.9432V15.9432ZM300.07 15.2614L300.499 16.1646C301.627 15.6286 302.494 14.8396 303.034 13.7848L302.143 13.3296L301.253 12.8743C300.94 13.4862 300.425 13.9851 299.64 14.3582L300.07 15.2614ZM302.143 13.3296L303.032 13.7887C303.556 12.7752 303.797 11.6069 303.797 10.3182H302.797H301.797C301.797 11.359 301.603 12.1983 301.255 12.8704L302.143 13.3296ZM302.797 10.3182H303.797C303.797 9.02829 303.555 7.85171 303.038 6.817L302.143 7.26422L301.249 7.71143C301.603 8.41915 301.797 9.27855 301.797 10.3182H302.797ZM302.143 7.26422L303.038 6.817C302.496 5.73222 301.631 4.91128 300.499 4.35098L300.055 5.24717L299.612 6.14336C300.393 6.53003 300.92 7.05378 301.249 7.71143L302.143 7.26422ZM300.055 5.24717L300.506 4.35452C299.36 3.77579 297.924 3.52274 296.263 3.52274V4.52274V5.52274C297.746 5.52274 298.838 5.75264 299.605 6.13982L300.055 5.24717ZM296.263 4.52274V3.52274H290.07V4.52274V5.52274H296.263V4.52274ZM290.07 4.52274H289.07V30.4886H290.07H291.07V4.52274H290.07ZM290.07 30.4886V29.4886H286.547V30.4886V31.4886H290.07V30.4886ZM300.24 17.4205L299.363 17.9009L306.522 30.9691L307.399 30.4886L308.276 30.0082L301.117 16.94L300.24 17.4205ZM307.399 30.4886V29.4886H303.308V30.4886V31.4886H307.399V30.4886ZM303.308 30.4886L304.188 30.0141L297.143 16.9459L296.263 17.4205L295.383 17.895L302.428 30.9632L303.308 30.4886ZM296.263 17.4205V18.4205H300.24V17.4205V16.4205H296.263V17.4205ZM310.542 4.52274H309.542V5.52274H310.542V4.52274ZM310.542 1.39774V0.397738H309.542V1.39774H310.542ZM332.36 1.39774H333.36V0.397738H332.36V1.39774ZM332.36 4.52274V5.52274H333.36V4.52274H332.36ZM323.212 4.52274V3.52274H322.212V4.52274H323.212ZM323.212 30.4886V31.4886H324.212V30.4886H323.212ZM319.69 30.4886H318.69V31.4886H319.69V30.4886ZM319.69 4.52274H320.69V3.52274H319.69V4.52274ZM310.542 4.52274H311.542V1.39774H310.542H309.542V4.52274H310.542ZM310.542 1.39774V2.39774H332.36V1.39774V0.397738H310.542V1.39774ZM332.36 1.39774H331.36V4.52274H332.36H333.36V1.39774H332.36ZM332.36 4.52274V3.52274H323.212V4.52274V5.52274H332.36V4.52274ZM323.212 4.52274H322.212V30.4886H323.212H324.212V4.52274H323.212ZM323.212 30.4886V29.4886H319.69V30.4886V31.4886H323.212V30.4886ZM319.69 30.4886H320.69V4.52274H319.69H318.69V30.4886H319.69ZM319.69 4.52274V3.52274H310.542V4.52274V5.52274H319.69V4.52274ZM335.592 30.4886V31.4886H336.298L336.534 30.8232L335.592 30.4886ZM331.898 30.4886L330.96 30.144L330.466 31.4886H331.898V30.4886ZM342.58 1.39774V0.397738H341.882L341.642 1.05305L342.58 1.39774ZM346.217 1.39774L347.155 1.05305L346.915 0.397738H346.217V1.39774ZM356.898 30.4886V31.4886H358.331L357.837 30.144L356.898 30.4886ZM353.205 30.4886L352.263 30.8232L352.499 31.4886H353.205V30.4886ZM344.512 6.00001L345.454 5.66548L345.218 5.00001H344.512V6.00001ZM344.285 6.00001V5.00001H343.579L343.342 5.66548L344.285 6.00001ZM336.955 19.125V18.125H335.955V19.125H336.955ZM351.842 19.125H352.842V18.125H351.842V19.125ZM351.842 22.25V23.25H352.842V22.25H351.842ZM336.955 22.25H335.955V23.25H336.955V22.25ZM335.592 30.4886V29.4886H331.898V30.4886V31.4886H335.592V30.4886ZM331.898 30.4886L332.837 30.8333L343.519 1.74242L342.58 1.39774L341.642 1.05305L330.96 30.144L331.898 30.4886ZM342.58 1.39774V2.39774H346.217V1.39774V0.397738H342.58V1.39774ZM346.217 1.39774L345.278 1.74242L355.96 30.8333L356.898 30.4886L357.837 30.144L347.155 1.05305L346.217 1.39774ZM356.898 30.4886V29.4886H353.205V30.4886V31.4886H356.898V30.4886ZM353.205 30.4886L354.148 30.1541L345.454 5.66548L344.512 6.00001L343.57 6.33455L352.263 30.8232L353.205 30.4886ZM344.512 6.00001V5.00001H344.285V6.00001V7.00001H344.512V6.00001ZM344.285 6.00001L343.342 5.66548L334.649 30.1541L335.592 30.4886L336.534 30.8232L345.227 6.33455L344.285 6.00001ZM336.955 19.125V20.125H351.842V19.125V18.125H336.955V19.125ZM351.842 19.125H350.842V22.25H351.842H352.842V19.125H351.842ZM351.842 22.25V21.25H336.955V22.25V23.25H351.842V22.25ZM336.955 22.25H337.955V19.125H336.955H335.955V22.25H336.955Z" fill="black" mask="url(#path-1-outside-1_23_9056)"/>
</svg>
