<svg width="181" height="17" viewBox="0 0 181 17" fill="none" xmlns="http://www.w3.org/2000/svg">
<mask id="path-1-outside-1_20_8967" maskUnits="userSpaceOnUse" x="-0.76136" y="-0.25568" width="182" height="18" fill="black">
<rect fill="white" x="-0.76136" y="-0.25568" width="182" height="18"/>
<path d="M1 1.19886H3.10228L8.04546 13.2727H8.21591L13.1591 1.19886H15.2614V15.7443H13.6136V4.69318H13.4716L8.92614 15.7443H7.33523L2.78978 4.69318H2.64773V15.7443H1V1.19886ZM18.793 15.7443V1.19886H27.5714V2.76136H20.5543V7.67614H27.1168V9.23864H20.5543V14.1818H27.685V15.7443H18.793ZM42.2802 1.19886V15.7443H40.5756L32.6495 4.32386H32.5075V15.7443H30.7461V1.19886H32.4506L40.4052 12.6477H40.5472V1.19886H42.2802ZM50.2933 15.7443H45.8047V1.19886H50.4922C51.9032 1.19886 53.1106 1.49006 54.1143 2.07244C55.1181 2.6501 55.8876 3.48106 56.4226 4.56534C56.9576 5.64489 57.2251 6.9375 57.2251 8.44318C57.2251 9.95833 56.9553 11.2628 56.4155 12.3565C55.8757 13.4456 55.0897 14.2836 54.0575 14.8707C53.0253 15.4531 51.7706 15.7443 50.2933 15.7443ZM47.5661 14.1818H50.1797C51.3823 14.1818 52.379 13.9498 53.1697 13.4858C53.9605 13.0218 54.55 12.3613 54.9382 11.5043C55.3265 10.6473 55.5206 9.6269 55.5206 8.44318C55.5206 7.26894 55.3288 6.25805 54.9453 5.41051C54.5618 4.55824 53.9889 3.90483 53.2266 3.45028C52.4643 2.991 51.5149 2.76136 50.3786 2.76136H47.5661V14.1818ZM72.4524 8.47159C72.4524 10.0057 72.1754 11.3314 71.6215 12.4489C71.0675 13.5663 70.3075 14.428 69.3416 15.0341C68.3757 15.6402 67.2725 15.9432 66.032 15.9432C64.7914 15.9432 63.6882 15.6402 62.7223 15.0341C61.7564 14.428 60.9965 13.5663 60.4425 12.4489C59.8885 11.3314 59.6115 10.0057 59.6115 8.47159C59.6115 6.9375 59.8885 5.61174 60.4425 4.49432C60.9965 3.3769 61.7564 2.51515 62.7223 1.90909C63.6882 1.30303 64.7914 1 66.032 1C67.2725 1 68.3757 1.30303 69.3416 1.90909C70.3075 2.51515 71.0675 3.3769 71.6215 4.49432C72.1754 5.61174 72.4524 6.9375 72.4524 8.47159ZM70.7479 8.47159C70.7479 7.21212 70.5372 6.14915 70.1158 5.28267C69.6991 4.41619 69.1333 3.76042 68.4183 3.31534C67.7081 2.87027 66.9126 2.64773 66.032 2.64773C65.1513 2.64773 64.3535 2.87027 63.6385 3.31534C62.9283 3.76042 62.3625 4.41619 61.9411 5.28267C61.5244 6.14915 61.3161 7.21212 61.3161 8.47159C61.3161 9.73106 61.5244 10.794 61.9411 11.6605C62.3625 12.527 62.9283 13.1828 63.6385 13.6278C64.3535 14.0729 65.1513 14.2955 66.032 14.2955C66.9126 14.2955 67.7081 14.0729 68.4183 13.6278C69.1333 13.1828 69.6991 12.527 70.1158 11.6605C70.5372 10.794 70.7479 9.73106 70.7479 8.47159ZM74.9311 15.7443V14.4659L82.772 2.76136H74.8459V1.19886H84.8743V2.47727L77.0334 14.1818H84.9595V15.7443H74.9311ZM88.5107 15.7443H86.6641L92.005 1.19886H93.8232L99.1641 15.7443H97.3175L92.9709 3.5H92.8572L88.5107 15.7443ZM89.1925 10.0625H96.6357V11.625H89.1925V10.0625ZM107.651 15.7443H105.805L111.146 1.19886H112.964L118.305 15.7443H116.458L112.112 3.5H111.998L107.651 15.7443ZM108.333 10.0625H115.776V11.625H108.333V10.0625ZM120.57 15.7443V1.19886H122.332V14.1818H129.093V15.7443H120.57ZM131.82 15.7443V1.19886H140.599V2.76136H133.582V7.67614H140.144V9.23864H133.582V14.1818H140.712V15.7443H131.82ZM143.773 15.7443V1.19886H148.688C149.825 1.19886 150.757 1.39299 151.487 1.78125C152.216 2.16477 152.755 2.69271 153.106 3.36506C153.456 4.03741 153.631 4.80208 153.631 5.65909C153.631 6.5161 153.456 7.27604 153.106 7.93892C152.755 8.6018 152.218 9.12263 151.494 9.50142C150.769 9.87548 149.844 10.0625 148.717 10.0625H144.739V8.47159H148.66C149.436 8.47159 150.061 8.35796 150.535 8.13068C151.013 7.90341 151.359 7.58144 151.572 7.16477C151.79 6.74337 151.898 6.24148 151.898 5.65909C151.898 5.07671 151.79 4.56771 151.572 4.1321C151.354 3.6965 151.006 3.36032 150.528 3.12358C150.049 2.8821 149.417 2.76136 148.631 2.76136H145.535V15.7443H143.773ZM150.62 9.21023L154.2 15.7443H152.154L148.631 9.21023H150.62ZM155.771 2.76136V1.19886H166.68V2.76136H162.106V15.7443H160.345V2.76136H155.771ZM168.296 15.7443H166.449L171.79 1.19886H173.608L178.949 15.7443H177.103L172.756 3.5H172.642L168.296 15.7443ZM168.978 10.0625H176.421V11.625H168.978V10.0625Z"/>
</mask>
<path d="M1 1.19886H3.10228L8.04546 13.2727H8.21591L13.1591 1.19886H15.2614V15.7443H13.6136V4.69318H13.4716L8.92614 15.7443H7.33523L2.78978 4.69318H2.64773V15.7443H1V1.19886ZM18.793 15.7443V1.19886H27.5714V2.76136H20.5543V7.67614H27.1168V9.23864H20.5543V14.1818H27.685V15.7443H18.793ZM42.2802 1.19886V15.7443H40.5756L32.6495 4.32386H32.5075V15.7443H30.7461V1.19886H32.4506L40.4052 12.6477H40.5472V1.19886H42.2802ZM50.2933 15.7443H45.8047V1.19886H50.4922C51.9032 1.19886 53.1106 1.49006 54.1143 2.07244C55.1181 2.6501 55.8876 3.48106 56.4226 4.56534C56.9576 5.64489 57.2251 6.9375 57.2251 8.44318C57.2251 9.95833 56.9553 11.2628 56.4155 12.3565C55.8757 13.4456 55.0897 14.2836 54.0575 14.8707C53.0253 15.4531 51.7706 15.7443 50.2933 15.7443ZM47.5661 14.1818H50.1797C51.3823 14.1818 52.379 13.9498 53.1697 13.4858C53.9605 13.0218 54.55 12.3613 54.9382 11.5043C55.3265 10.6473 55.5206 9.6269 55.5206 8.44318C55.5206 7.26894 55.3288 6.25805 54.9453 5.41051C54.5618 4.55824 53.9889 3.90483 53.2266 3.45028C52.4643 2.991 51.5149 2.76136 50.3786 2.76136H47.5661V14.1818ZM72.4524 8.47159C72.4524 10.0057 72.1754 11.3314 71.6215 12.4489C71.0675 13.5663 70.3075 14.428 69.3416 15.0341C68.3757 15.6402 67.2725 15.9432 66.032 15.9432C64.7914 15.9432 63.6882 15.6402 62.7223 15.0341C61.7564 14.428 60.9965 13.5663 60.4425 12.4489C59.8885 11.3314 59.6115 10.0057 59.6115 8.47159C59.6115 6.9375 59.8885 5.61174 60.4425 4.49432C60.9965 3.3769 61.7564 2.51515 62.7223 1.90909C63.6882 1.30303 64.7914 1 66.032 1C67.2725 1 68.3757 1.30303 69.3416 1.90909C70.3075 2.51515 71.0675 3.3769 71.6215 4.49432C72.1754 5.61174 72.4524 6.9375 72.4524 8.47159ZM70.7479 8.47159C70.7479 7.21212 70.5372 6.14915 70.1158 5.28267C69.6991 4.41619 69.1333 3.76042 68.4183 3.31534C67.7081 2.87027 66.9126 2.64773 66.032 2.64773C65.1513 2.64773 64.3535 2.87027 63.6385 3.31534C62.9283 3.76042 62.3625 4.41619 61.9411 5.28267C61.5244 6.14915 61.3161 7.21212 61.3161 8.47159C61.3161 9.73106 61.5244 10.794 61.9411 11.6605C62.3625 12.527 62.9283 13.1828 63.6385 13.6278C64.3535 14.0729 65.1513 14.2955 66.032 14.2955C66.9126 14.2955 67.7081 14.0729 68.4183 13.6278C69.1333 13.1828 69.6991 12.527 70.1158 11.6605C70.5372 10.794 70.7479 9.73106 70.7479 8.47159ZM74.9311 15.7443V14.4659L82.772 2.76136H74.8459V1.19886H84.8743V2.47727L77.0334 14.1818H84.9595V15.7443H74.9311ZM88.5107 15.7443H86.6641L92.005 1.19886H93.8232L99.1641 15.7443H97.3175L92.9709 3.5H92.8572L88.5107 15.7443ZM89.1925 10.0625H96.6357V11.625H89.1925V10.0625ZM107.651 15.7443H105.805L111.146 1.19886H112.964L118.305 15.7443H116.458L112.112 3.5H111.998L107.651 15.7443ZM108.333 10.0625H115.776V11.625H108.333V10.0625ZM120.57 15.7443V1.19886H122.332V14.1818H129.093V15.7443H120.57ZM131.82 15.7443V1.19886H140.599V2.76136H133.582V7.67614H140.144V9.23864H133.582V14.1818H140.712V15.7443H131.82ZM143.773 15.7443V1.19886H148.688C149.825 1.19886 150.757 1.39299 151.487 1.78125C152.216 2.16477 152.755 2.69271 153.106 3.36506C153.456 4.03741 153.631 4.80208 153.631 5.65909C153.631 6.5161 153.456 7.27604 153.106 7.93892C152.755 8.6018 152.218 9.12263 151.494 9.50142C150.769 9.87548 149.844 10.0625 148.717 10.0625H144.739V8.47159H148.66C149.436 8.47159 150.061 8.35796 150.535 8.13068C151.013 7.90341 151.359 7.58144 151.572 7.16477C151.79 6.74337 151.898 6.24148 151.898 5.65909C151.898 5.07671 151.79 4.56771 151.572 4.1321C151.354 3.6965 151.006 3.36032 150.528 3.12358C150.049 2.8821 149.417 2.76136 148.631 2.76136H145.535V15.7443H143.773ZM150.62 9.21023L154.2 15.7443H152.154L148.631 9.21023H150.62ZM155.771 2.76136V1.19886H166.68V2.76136H162.106V15.7443H160.345V2.76136H155.771ZM168.296 15.7443H166.449L171.79 1.19886H173.608L178.949 15.7443H177.103L172.756 3.5H172.642L168.296 15.7443ZM168.978 10.0625H176.421V11.625H168.978V10.0625Z" fill="white"/>
<path d="M1 1.19886V0.198865H3.57628e-06V1.19886H1ZM3.10228 1.19886L4.02772 0.819978L3.77343 0.198865H3.10228V1.19886ZM8.04546 13.2727L7.12002 13.6516L7.37431 14.2727H8.04546V13.2727ZM8.21591 13.2727V14.2727H8.88706L9.14136 13.6516L8.21591 13.2727ZM13.1591 1.19886V0.198865H12.4879L12.2337 0.819978L13.1591 1.19886ZM15.2614 1.19886H16.2614V0.198865H15.2614V1.19886ZM15.2614 15.7443V16.7443H16.2614V15.7443H15.2614ZM13.6136 15.7443H12.6136V16.7443H13.6136V15.7443ZM13.6136 4.69318H14.6136V3.69318H13.6136V4.69318ZM13.4716 4.69318V3.69318H12.8016L12.5468 4.31279L13.4716 4.69318ZM8.92614 15.7443V16.7443H9.59611L9.85097 16.1247L8.92614 15.7443ZM7.33523 15.7443L6.41041 16.1247L6.66526 16.7443H7.33523V15.7443ZM2.78978 4.69318L3.7146 4.31279L3.45975 3.69318H2.78978V4.69318ZM2.64773 4.69318V3.69318H1.64773V4.69318H2.64773ZM2.64773 15.7443V16.7443H3.64773V15.7443H2.64773ZM1 15.7443H3.57628e-06V16.7443H1V15.7443ZM1 1.19886V2.19886H3.10228V1.19886V0.198865H1V1.19886ZM3.10228 1.19886L2.17683 1.57775L7.12002 13.6516L8.04546 13.2727L8.9709 12.8938L4.02772 0.819978L3.10228 1.19886ZM8.04546 13.2727V14.2727H8.21591V13.2727V12.2727H8.04546V13.2727ZM8.21591 13.2727L9.14136 13.6516L14.0845 1.57775L13.1591 1.19886L12.2337 0.819978L7.29047 12.8938L8.21591 13.2727ZM13.1591 1.19886V2.19886H15.2614V1.19886V0.198865H13.1591V1.19886ZM15.2614 1.19886H14.2614V15.7443H15.2614H16.2614V1.19886H15.2614ZM15.2614 15.7443V14.7443H13.6136V15.7443V16.7443H15.2614V15.7443ZM13.6136 15.7443H14.6136V4.69318H13.6136H12.6136V15.7443H13.6136ZM13.6136 4.69318V3.69318H13.4716V4.69318V5.69318H13.6136V4.69318ZM13.4716 4.69318L12.5468 4.31279L8.00131 15.3639L8.92614 15.7443L9.85097 16.1247L14.3964 5.07358L13.4716 4.69318ZM8.92614 15.7443V14.7443H7.33523V15.7443V16.7443H8.92614V15.7443ZM7.33523 15.7443L8.26006 15.3639L3.7146 4.31279L2.78978 4.69318L1.86495 5.07358L6.41041 16.1247L7.33523 15.7443ZM2.78978 4.69318V3.69318H2.64773V4.69318V5.69318H2.78978V4.69318ZM2.64773 4.69318H1.64773V15.7443H2.64773H3.64773V4.69318H2.64773ZM2.64773 15.7443V14.7443H1V15.7443V16.7443H2.64773V15.7443ZM1 15.7443H2V1.19886H1H3.57628e-06V15.7443H1ZM18.793 15.7443H17.793V16.7443H18.793V15.7443ZM18.793 1.19886V0.198865H17.793V1.19886H18.793ZM27.5714 1.19886H28.5714V0.198865H27.5714V1.19886ZM27.5714 2.76136V3.76136H28.5714V2.76136H27.5714ZM20.5543 2.76136V1.76136H19.5543V2.76136H20.5543ZM20.5543 7.67614H19.5543V8.67614H20.5543V7.67614ZM27.1168 7.67614H28.1168V6.67614H27.1168V7.67614ZM27.1168 9.23864V10.2386H28.1168V9.23864H27.1168ZM20.5543 9.23864V8.23864H19.5543V9.23864H20.5543ZM20.5543 14.1818H19.5543V15.1818H20.5543V14.1818ZM27.685 14.1818H28.685V13.1818H27.685V14.1818ZM27.685 15.7443V16.7443H28.685V15.7443H27.685ZM18.793 15.7443H19.793V1.19886H18.793H17.793V15.7443H18.793ZM18.793 1.19886V2.19886H27.5714V1.19886V0.198865H18.793V1.19886ZM27.5714 1.19886H26.5714V2.76136H27.5714H28.5714V1.19886H27.5714ZM27.5714 2.76136V1.76136H20.5543V2.76136V3.76136H27.5714V2.76136ZM20.5543 2.76136H19.5543V7.67614H20.5543H21.5543V2.76136H20.5543ZM20.5543 7.67614V8.67614H27.1168V7.67614V6.67614H20.5543V7.67614ZM27.1168 7.67614H26.1168V9.23864H27.1168H28.1168V7.67614H27.1168ZM27.1168 9.23864V8.23864H20.5543V9.23864V10.2386H27.1168V9.23864ZM20.5543 9.23864H19.5543V14.1818H20.5543H21.5543V9.23864H20.5543ZM20.5543 14.1818V15.1818H27.685V14.1818V13.1818H20.5543V14.1818ZM27.685 14.1818H26.685V15.7443H27.685H28.685V14.1818H27.685ZM27.685 15.7443V14.7443H18.793V15.7443V16.7443H27.685V15.7443ZM42.2802 1.19886H43.2802V0.198865H42.2802V1.19886ZM42.2802 15.7443V16.7443H43.2802V15.7443H42.2802ZM40.5756 15.7443L39.7541 16.3145L40.0524 16.7443H40.5756V15.7443ZM32.6495 4.32386L33.471 3.7537L33.1727 3.32386H32.6495V4.32386ZM32.5075 4.32386V3.32386H31.5075V4.32386H32.5075ZM32.5075 15.7443V16.7443H33.5075V15.7443H32.5075ZM30.7461 15.7443H29.7461V16.7443H30.7461V15.7443ZM30.7461 1.19886V0.198865H29.7461V1.19886H30.7461ZM32.4506 1.19886L33.2719 0.628278L32.9735 0.198865H32.4506V1.19886ZM40.4052 12.6477L39.584 13.2183L39.8823 13.6477H40.4052V12.6477ZM40.5472 12.6477V13.6477H41.5472V12.6477H40.5472ZM40.5472 1.19886V0.198865H39.5472V1.19886H40.5472ZM42.2802 1.19886H41.2802V15.7443H42.2802H43.2802V1.19886H42.2802ZM42.2802 15.7443V14.7443H40.5756V15.7443V16.7443H42.2802V15.7443ZM40.5756 15.7443L41.3972 15.1742L33.471 3.7537L32.6495 4.32386L31.828 4.89403L39.7541 16.3145L40.5756 15.7443ZM32.6495 4.32386V3.32386H32.5075V4.32386V5.32386H32.6495V4.32386ZM32.5075 4.32386H31.5075V15.7443H32.5075H33.5075V4.32386H32.5075ZM32.5075 15.7443V14.7443H30.7461V15.7443V16.7443H32.5075V15.7443ZM30.7461 15.7443H31.7461V1.19886H30.7461H29.7461V15.7443H30.7461ZM30.7461 1.19886V2.19886H32.4506V1.19886V0.198865H30.7461V1.19886ZM32.4506 1.19886L31.6294 1.76945L39.584 13.2183L40.4052 12.6477L41.2264 12.0771L33.2719 0.628278L32.4506 1.19886ZM40.4052 12.6477V13.6477H40.5472V12.6477V11.6477H40.4052V12.6477ZM40.5472 12.6477H41.5472V1.19886H40.5472H39.5472V12.6477H40.5472ZM40.5472 1.19886V2.19886H42.2802V1.19886V0.198865H40.5472V1.19886ZM45.8047 15.7443H44.8047V16.7443H45.8047V15.7443ZM45.8047 1.19886V0.198865H44.8047V1.19886H45.8047ZM54.1143 2.07244L53.6125 2.93741L53.6156 2.93917L54.1143 2.07244ZM56.4226 4.56534L55.5258 5.00785L55.5266 5.00941L56.4226 4.56534ZM56.4155 12.3565L57.3115 12.8006L57.3122 12.7991L56.4155 12.3565ZM54.0575 14.8707L54.5489 15.7417L54.552 15.74L54.0575 14.8707ZM47.5661 14.1818H46.5661V15.1818H47.5661V14.1818ZM53.1697 13.4858L52.6636 12.6233L53.1697 13.4858ZM54.9453 5.41051L54.0334 5.82088L54.0343 5.82278L54.9453 5.41051ZM53.2266 3.45028L52.7105 4.30685L52.7144 4.30919L53.2266 3.45028ZM47.5661 2.76136V1.76136H46.5661V2.76136H47.5661ZM50.2933 15.7443V14.7443H45.8047V15.7443V16.7443H50.2933V15.7443ZM45.8047 15.7443H46.8047V1.19886H45.8047H44.8047V15.7443H45.8047ZM45.8047 1.19886V2.19886H50.4922V1.19886V0.198865H45.8047V1.19886ZM50.4922 1.19886V2.19886C51.7649 2.19886 52.7909 2.46074 53.6125 2.9374L54.1143 2.07244L54.6162 1.20749C53.4302 0.519373 52.0415 0.198865 50.4922 0.198865V1.19886ZM54.1143 2.07244L53.6156 2.93917C54.4398 3.41348 55.0744 4.09302 55.5258 5.00785L56.4226 4.56534L57.3194 4.12283C56.7007 2.8691 55.7965 1.88671 54.6131 1.20572L54.1143 2.07244ZM56.4226 4.56534L55.5266 5.00941C55.9783 5.92081 56.2251 7.054 56.2251 8.44318H57.2251H58.2251C58.2251 6.821 57.937 5.36897 57.3186 4.12127L56.4226 4.56534ZM57.2251 8.44318H56.2251C56.2251 9.84121 55.9761 10.9871 55.5187 11.914L56.4155 12.3565L57.3122 12.7991C57.9344 11.5384 58.2251 10.0755 58.2251 8.44318H57.2251ZM56.4155 12.3565L55.5195 11.9124C55.066 12.8274 54.4178 13.5154 53.5631 14.0015L54.0575 14.8707L54.552 15.74C55.7617 15.0519 56.6854 14.0637 57.3115 12.8006L56.4155 12.3565ZM54.0575 14.8707L53.5661 13.9998C52.7166 14.4791 51.6403 14.7443 50.2933 14.7443V15.7443V16.7443C51.9009 16.7443 53.3341 16.4271 54.5489 15.7417L54.0575 14.8707ZM47.5661 14.1818V15.1818H50.1797V14.1818V13.1818H47.5661V14.1818ZM50.1797 14.1818V15.1818C51.5063 15.1818 52.691 14.9262 53.6759 14.3483L53.1697 13.4858L52.6636 12.6233C52.0671 12.9734 51.2584 13.1818 50.1797 13.1818V14.1818ZM53.1697 13.4858L53.6759 14.3483C54.6496 13.7768 55.378 12.9568 55.8491 11.9169L54.9382 11.5043L54.0273 11.0916C53.7219 11.7657 53.2713 12.2667 52.6636 12.6233L53.1697 13.4858ZM54.9382 11.5043L55.8491 11.9169C56.3092 10.9014 56.5206 9.73364 56.5206 8.44318H55.5206H54.5206C54.5206 9.52015 54.3438 10.3931 54.0273 11.0916L54.9382 11.5043ZM55.5206 8.44318H56.5206C56.5206 7.16284 56.3118 6.00459 55.8564 4.99824L54.9453 5.41051L54.0343 5.82278C54.3459 6.51151 54.5206 7.37505 54.5206 8.44318H55.5206ZM54.9453 5.41051L55.8572 5.00015C55.3943 3.97142 54.6867 3.15667 53.7387 2.59138L53.2266 3.45028L52.7144 4.30919C53.291 4.65299 53.7293 5.14506 54.0334 5.82088L54.9453 5.41051ZM53.2266 3.45028L53.7426 2.59373C52.7869 2.01794 51.6472 1.76136 50.3786 1.76136V2.76136V3.76136C51.3826 3.76136 52.1416 3.96407 52.7105 4.30684L53.2266 3.45028ZM50.3786 2.76136V1.76136H47.5661V2.76136V3.76136H50.3786V2.76136ZM47.5661 2.76136H46.5661V14.1818H47.5661H48.5661V2.76136H47.5661ZM71.6215 12.4489L70.7255 12.0047V12.0047L71.6215 12.4489ZM69.3416 15.0341L69.8731 15.8812V15.8812L69.3416 15.0341ZM62.7223 15.0341L62.1908 15.8812V15.8812L62.7223 15.0341ZM60.4425 12.4489L61.3384 12.0047V12.0047L60.4425 12.4489ZM60.4425 4.49432L59.5465 4.05015L60.4425 4.49432ZM69.3416 1.90909L69.8731 1.06203V1.06203L69.3416 1.90909ZM71.6215 4.49432L70.7255 4.93849V4.93849L71.6215 4.49432ZM70.1158 5.28267L69.2145 5.71605L69.2165 5.72003L70.1158 5.28267ZM68.4183 3.31534L67.8873 4.16271L67.8898 4.16429L68.4183 3.31534ZM63.6385 3.31534L63.11 2.46639L63.1075 2.46798L63.6385 3.31534ZM61.9411 5.28267L61.0418 4.84531L61.0398 4.8493L61.9411 5.28267ZM61.9411 11.6605L61.0398 12.0939L61.0418 12.0979L61.9411 11.6605ZM63.6385 13.6278L63.1075 14.4752L63.11 14.4768L63.6385 13.6278ZM68.4183 13.6278L67.8898 12.7789L67.8873 12.7805L68.4183 13.6278ZM70.1158 11.6605L69.2165 11.2232L69.2146 11.2271L70.1158 11.6605ZM72.4524 8.47159H71.4524C71.4524 9.88637 71.1971 11.0534 70.7255 12.0047L71.6215 12.4489L72.5174 12.893C73.1538 11.6094 73.4524 10.125 73.4524 8.47159H72.4524ZM71.6215 12.4489L70.7255 12.0047C70.2456 12.9728 69.6052 13.6882 68.8101 14.187L69.3416 15.0341L69.8731 15.8812C71.0099 15.1679 71.8894 14.1598 72.5174 12.893L71.6215 12.4489ZM69.3416 15.0341L68.8101 14.187C68.0174 14.6844 67.1016 14.9432 66.032 14.9432V15.9432V16.9432C67.4434 16.9432 68.734 16.5959 69.8731 15.8812L69.3416 15.0341ZM66.032 15.9432V14.9432C64.9623 14.9432 64.0465 14.6844 63.2538 14.187L62.7223 15.0341L62.1908 15.8812C63.3299 16.5959 64.6206 16.9432 66.032 16.9432V15.9432ZM62.7223 15.0341L63.2538 14.187C62.4587 13.6882 61.8184 12.9728 61.3384 12.0047L60.4425 12.4489L59.5465 12.893C60.1745 14.1598 61.0541 15.1679 62.1908 15.8812L62.7223 15.0341ZM60.4425 12.4489L61.3384 12.0047C60.8668 11.0534 60.6115 9.88637 60.6115 8.47159H59.6115H58.6115C58.6115 10.125 58.9102 11.6094 59.5465 12.893L60.4425 12.4489ZM59.6115 8.47159H60.6115C60.6115 7.05681 60.8668 5.88974 61.3384 4.93849L60.4425 4.49432L59.5465 4.05015C58.9102 5.33374 58.6115 6.81819 58.6115 8.47159H59.6115ZM60.4425 4.49432L61.3384 4.93849C61.8184 3.97039 62.4587 3.25503 63.2538 2.75616L62.7223 1.90909L62.1908 1.06203C61.0541 1.77528 60.1745 2.7834 59.5465 4.05015L60.4425 4.49432ZM62.7223 1.90909L63.2538 2.75616C64.0465 2.25877 64.9623 2 66.032 2V1V9.53674e-07C64.6206 9.53674e-07 63.3299 0.347294 62.1908 1.06203L62.7223 1.90909ZM66.032 1V2C67.1016 2 68.0174 2.25877 68.8101 2.75616L69.3416 1.90909L69.8731 1.06203C68.734 0.347294 67.4434 9.53674e-07 66.032 9.53674e-07V1ZM69.3416 1.90909L68.8101 2.75616C69.6052 3.25503 70.2456 3.97039 70.7255 4.93849L71.6215 4.49432L72.5174 4.05015C71.8894 2.7834 71.0099 1.77528 69.8731 1.06203L69.3416 1.90909ZM71.6215 4.49432L70.7255 4.93849C71.1971 5.88974 71.4524 7.05681 71.4524 8.47159H72.4524H73.4524C73.4524 6.81819 73.1538 5.33374 72.5174 4.05015L71.6215 4.49432ZM70.7479 8.47159H71.7479C71.7479 7.10531 71.5199 5.88326 71.0151 4.84531L70.1158 5.28267L69.2165 5.72003C69.5545 6.41504 69.7479 7.31894 69.7479 8.47159H70.7479ZM70.1158 5.28267L71.017 4.8493C70.53 3.83657 69.8448 3.02544 68.9468 2.4664L68.4183 3.31534L67.8898 4.16429C68.4217 4.49539 68.8682 4.99582 69.2146 5.71604L70.1158 5.28267ZM68.4183 3.31534L68.9493 2.46798C68.0717 1.91799 67.0905 1.64773 66.032 1.64773V2.64773V3.64773C66.7348 3.64773 67.3445 3.82254 67.8873 4.16271L68.4183 3.31534ZM66.032 2.64773V1.64773C64.9734 1.64773 63.991 1.91797 63.11 2.4664L63.6385 3.31534L64.167 4.16429C64.7159 3.82257 65.3291 3.64773 66.032 3.64773V2.64773ZM63.6385 3.31534L63.1075 2.46798C62.2159 3.02671 61.5326 3.83611 61.0418 4.84531L61.9411 5.28267L62.8403 5.72003C63.1923 4.99628 63.6406 4.49413 64.1695 4.16271L63.6385 3.31534ZM61.9411 5.28267L61.0398 4.8493C60.5412 5.88615 60.3161 7.1067 60.3161 8.47159H61.3161H62.3161C62.3161 7.31755 62.5075 6.41215 62.8423 5.71604L61.9411 5.28267ZM61.3161 8.47159H60.3161C60.3161 9.83649 60.5412 11.057 61.0398 12.0939L61.9411 11.6605L62.8423 11.2271C62.5075 10.531 62.3161 9.62564 62.3161 8.47159H61.3161ZM61.9411 11.6605L61.0418 12.0979C61.5326 13.1071 62.2159 13.9165 63.1075 14.4752L63.6385 13.6278L64.1695 12.7805C63.6406 12.4491 63.1923 11.9469 62.8403 11.2232L61.9411 11.6605ZM63.6385 13.6278L63.11 14.4768C63.991 15.0252 64.9734 15.2955 66.032 15.2955V14.2955V13.2955C65.3291 13.2955 64.7159 13.1206 64.167 12.7789L63.6385 13.6278ZM66.032 14.2955V15.2955C67.0905 15.2955 68.0717 15.0252 68.9493 14.4752L68.4183 13.6278L67.8873 12.7805C67.3445 13.1206 66.7348 13.2955 66.032 13.2955V14.2955ZM68.4183 13.6278L68.9468 14.4768C69.8448 13.9177 70.53 13.1066 71.017 12.0939L70.1158 11.6605L69.2146 11.2271C68.8682 11.9474 68.4217 12.4478 67.8898 12.7789L68.4183 13.6278ZM70.1158 11.6605L71.0151 12.0979C71.5199 11.0599 71.7479 9.83788 71.7479 8.47159H70.7479H69.7479C69.7479 9.62424 69.5545 10.5281 69.2165 11.2232L70.1158 11.6605ZM74.9311 15.7443H73.9311V16.7443H74.9311V15.7443ZM74.9311 14.4659L74.1003 13.9094L73.9311 14.1619V14.4659H74.9311ZM82.772 2.76136L83.6028 3.31793L84.6456 1.76136H82.772V2.76136ZM74.8459 2.76136H73.8459V3.76136H74.8459V2.76136ZM74.8459 1.19886V0.198865H73.8459V1.19886H74.8459ZM84.8743 1.19886H85.8743V0.198865H84.8743V1.19886ZM84.8743 2.47727L85.7051 3.03383L85.8743 2.78127V2.47727H84.8743ZM77.0334 14.1818L76.2026 13.6253L75.1598 15.1818H77.0334V14.1818ZM84.9595 14.1818H85.9595V13.1818H84.9595V14.1818ZM84.9595 15.7443V16.7443H85.9595V15.7443H84.9595ZM74.9311 15.7443H75.9311V14.4659H74.9311H73.9311V15.7443H74.9311ZM74.9311 14.4659L75.7619 15.0225L83.6028 3.31793L82.772 2.76136L81.9412 2.2048L74.1003 13.9094L74.9311 14.4659ZM82.772 2.76136V1.76136H74.8459V2.76136V3.76136H82.772V2.76136ZM74.8459 2.76136H75.8459V1.19886H74.8459H73.8459V2.76136H74.8459ZM74.8459 1.19886V2.19886H84.8743V1.19886V0.198865H74.8459V1.19886ZM84.8743 1.19886H83.8743V2.47727H84.8743H85.8743V1.19886H84.8743ZM84.8743 2.47727L84.0435 1.92071L76.2026 13.6253L77.0334 14.1818L77.8642 14.7384L85.7051 3.03383L84.8743 2.47727ZM77.0334 14.1818V15.1818H84.9595V14.1818V13.1818H77.0334V14.1818ZM84.9595 14.1818H83.9595V15.7443H84.9595H85.9595V14.1818H84.9595ZM84.9595 15.7443V14.7443H74.9311V15.7443V16.7443H84.9595V15.7443ZM88.5107 15.7443V16.7443H89.2168L89.453 16.0789L88.5107 15.7443ZM86.6641 15.7443L85.7253 15.3996L85.2316 16.7443H86.6641V15.7443ZM92.005 1.19886V0.198865H91.3069L91.0663 0.854179L92.005 1.19886ZM93.8232 1.19886L94.7619 0.854179L94.5213 0.198865H93.8232V1.19886ZM99.1641 15.7443V16.7443H100.597L100.103 15.3996L99.1641 15.7443ZM97.3175 15.7443L96.3751 16.0789L96.6113 16.7443H97.3175V15.7443ZM92.9709 3.5L93.9133 3.16547L93.677 2.5H92.9709V3.5ZM92.8572 3.5V2.5H92.1511L91.9149 3.16547L92.8572 3.5ZM89.1925 10.0625V9.0625H88.1925V10.0625H89.1925ZM96.6357 10.0625H97.6357V9.0625H96.6357V10.0625ZM96.6357 11.625V12.625H97.6357V11.625H96.6357ZM89.1925 11.625H88.1925V12.625H89.1925V11.625ZM88.5107 15.7443V14.7443H86.6641V15.7443V16.7443H88.5107V15.7443ZM86.6641 15.7443L87.6028 16.089L92.9437 1.54355L92.005 1.19886L91.0663 0.854179L85.7253 15.3996L86.6641 15.7443ZM92.005 1.19886V2.19886H93.8232V1.19886V0.198865H92.005V1.19886ZM93.8232 1.19886L92.8844 1.54355L98.2253 16.089L99.1641 15.7443L100.103 15.3996L94.7619 0.854179L93.8232 1.19886ZM99.1641 15.7443V14.7443H97.3175V15.7443V16.7443H99.1641V15.7443ZM97.3175 15.7443L98.2599 15.4098L93.9133 3.16547L92.9709 3.5L92.0285 3.83454L96.3751 16.0789L97.3175 15.7443ZM92.9709 3.5V2.5H92.8572V3.5V4.5H92.9709V3.5ZM92.8572 3.5L91.9149 3.16547L87.5683 15.4098L88.5107 15.7443L89.453 16.0789L93.7996 3.83454L92.8572 3.5ZM89.1925 10.0625V11.0625H96.6357V10.0625V9.0625H89.1925V10.0625ZM96.6357 10.0625H95.6357V11.625H96.6357H97.6357V10.0625H96.6357ZM96.6357 11.625V10.625H89.1925V11.625V12.625H96.6357V11.625ZM89.1925 11.625H90.1925V10.0625H89.1925H88.1925V11.625H89.1925ZM107.651 15.7443V16.7443H108.357L108.594 16.0789L107.651 15.7443ZM105.805 15.7443L104.866 15.3996L104.372 16.7443H105.805V15.7443ZM111.146 1.19886V0.198865H110.448L110.207 0.854179L111.146 1.19886ZM112.964 1.19886L113.903 0.854179L113.662 0.198865H112.964V1.19886ZM118.305 15.7443V16.7443H119.737L119.243 15.3996L118.305 15.7443ZM116.458 15.7443L115.516 16.0789L115.752 16.7443H116.458V15.7443ZM112.112 3.5L113.054 3.16547L112.818 2.5H112.112V3.5ZM111.998 3.5V2.5H111.292L111.055 3.16547L111.998 3.5ZM108.333 10.0625V9.0625H107.333V10.0625H108.333ZM115.776 10.0625H116.776V9.0625H115.776V10.0625ZM115.776 11.625V12.625H116.776V11.625H115.776ZM108.333 11.625H107.333V12.625H108.333V11.625ZM107.651 15.7443V14.7443H105.805V15.7443V16.7443H107.651V15.7443ZM105.805 15.7443L106.743 16.089L112.084 1.54355L111.146 1.19886L110.207 0.854179L104.866 15.3996L105.805 15.7443ZM111.146 1.19886V2.19886H112.964V1.19886V0.198865H111.146V1.19886ZM112.964 1.19886L112.025 1.54355L117.366 16.089L118.305 15.7443L119.243 15.3996L113.903 0.854179L112.964 1.19886ZM118.305 15.7443V14.7443H116.458V15.7443V16.7443H118.305V15.7443ZM116.458 15.7443L117.4 15.4098L113.054 3.16547L112.112 3.5L111.169 3.83454L115.516 16.0789L116.458 15.7443ZM112.112 3.5V2.5H111.998V3.5V4.5H112.112V3.5ZM111.998 3.5L111.055 3.16547L106.709 15.4098L107.651 15.7443L108.594 16.0789L112.94 3.83454L111.998 3.5ZM108.333 10.0625V11.0625H115.776V10.0625V9.0625H108.333V10.0625ZM115.776 10.0625H114.776V11.625H115.776H116.776V10.0625H115.776ZM115.776 11.625V10.625H108.333V11.625V12.625H115.776V11.625ZM108.333 11.625H109.333V10.0625H108.333H107.333V11.625H108.333ZM120.57 15.7443H119.57V16.7443H120.57V15.7443ZM120.57 1.19886V0.198865H119.57V1.19886H120.57ZM122.332 1.19886H123.332V0.198865H122.332V1.19886ZM122.332 14.1818H121.332V15.1818H122.332V14.1818ZM129.093 14.1818H130.093V13.1818H129.093V14.1818ZM129.093 15.7443V16.7443H130.093V15.7443H129.093ZM120.57 15.7443H121.57V1.19886H120.57H119.57V15.7443H120.57ZM120.57 1.19886V2.19886H122.332V1.19886V0.198865H120.57V1.19886ZM122.332 1.19886H121.332V14.1818H122.332H123.332V1.19886H122.332ZM122.332 14.1818V15.1818H129.093V14.1818V13.1818H122.332V14.1818ZM129.093 14.1818H128.093V15.7443H129.093H130.093V14.1818H129.093ZM129.093 15.7443V14.7443H120.57V15.7443V16.7443H129.093V15.7443ZM131.82 15.7443H130.82V16.7443H131.82V15.7443ZM131.82 1.19886V0.198865H130.82V1.19886H131.82ZM140.599 1.19886H141.599V0.198865H140.599V1.19886ZM140.599 2.76136V3.76136H141.599V2.76136H140.599ZM133.582 2.76136V1.76136H132.582V2.76136H133.582ZM133.582 7.67614H132.582V8.67614H133.582V7.67614ZM140.144 7.67614H141.144V6.67614H140.144V7.67614ZM140.144 9.23864V10.2386H141.144V9.23864H140.144ZM133.582 9.23864V8.23864H132.582V9.23864H133.582ZM133.582 14.1818H132.582V15.1818H133.582V14.1818ZM140.712 14.1818H141.712V13.1818H140.712V14.1818ZM140.712 15.7443V16.7443H141.712V15.7443H140.712ZM131.82 15.7443H132.82V1.19886H131.82H130.82V15.7443H131.82ZM131.82 1.19886V2.19886H140.599V1.19886V0.198865H131.82V1.19886ZM140.599 1.19886H139.599V2.76136H140.599H141.599V1.19886H140.599ZM140.599 2.76136V1.76136H133.582V2.76136V3.76136H140.599V2.76136ZM133.582 2.76136H132.582V7.67614H133.582H134.582V2.76136H133.582ZM133.582 7.67614V8.67614H140.144V7.67614V6.67614H133.582V7.67614ZM140.144 7.67614H139.144V9.23864H140.144H141.144V7.67614H140.144ZM140.144 9.23864V8.23864H133.582V9.23864V10.2386H140.144V9.23864ZM133.582 9.23864H132.582V14.1818H133.582H134.582V9.23864H133.582ZM133.582 14.1818V15.1818H140.712V14.1818V13.1818H133.582V14.1818ZM140.712 14.1818H139.712V15.7443H140.712H141.712V14.1818H140.712ZM140.712 15.7443V14.7443H131.82V15.7443V16.7443H140.712V15.7443ZM143.773 15.7443H142.773V16.7443H143.773V15.7443ZM143.773 1.19886V0.198865H142.773V1.19886H143.773ZM151.487 1.78125L151.017 2.66393L151.021 2.66629L151.487 1.78125ZM153.106 3.36506L152.219 3.8272V3.8272L153.106 3.36506ZM153.106 7.93892L152.222 7.47161V7.47161L153.106 7.93892ZM151.494 9.50142L151.952 10.39L151.957 10.3876L151.494 9.50142ZM144.739 10.0625H143.739V11.0625H144.739V10.0625ZM144.739 8.47159V7.47159H143.739V8.47159H144.739ZM150.535 8.13068L150.106 7.22749L150.102 7.22916L150.535 8.13068ZM151.572 7.16477L150.683 6.70562L150.681 6.70949L151.572 7.16477ZM150.528 3.12358L150.077 4.01626L150.084 4.01978L150.528 3.12358ZM145.535 2.76136V1.76136H144.535V2.76136H145.535ZM145.535 15.7443V16.7443H146.535V15.7443H145.535ZM150.62 9.21023L151.497 8.72977L151.212 8.21023H150.62V9.21023ZM154.2 15.7443V16.7443H155.888L155.077 15.2639L154.2 15.7443ZM152.154 15.7443L151.274 16.2189L151.557 16.7443H152.154V15.7443ZM148.631 9.21023V8.21023H146.956L147.751 9.68478L148.631 9.21023ZM143.773 15.7443H144.773V1.19886H143.773H142.773V15.7443H143.773ZM143.773 1.19886V2.19886H148.688V1.19886V0.198865H143.773V1.19886ZM148.688 1.19886V2.19886C149.719 2.19886 150.476 2.37616 151.017 2.66392L151.487 1.78125L151.957 0.898582C151.039 0.409825 149.93 0.198865 148.688 0.198865V1.19886ZM151.487 1.78125L151.021 2.66629C151.586 2.96365 151.971 3.35118 152.219 3.8272L153.106 3.36506L153.993 2.90292C153.54 2.03424 152.845 1.3659 151.952 0.896208L151.487 1.78125ZM153.106 3.36506L152.219 3.8272C152.486 4.33916 152.631 4.94179 152.631 5.65909H153.631H154.631C154.631 4.66238 154.427 3.73565 153.993 2.90292L153.106 3.36506ZM153.631 5.65909H152.631C152.631 6.37671 152.486 6.97217 152.222 7.47161L153.106 7.93892L153.99 8.40623C154.427 7.57992 154.631 6.65549 154.631 5.65909H153.631ZM153.106 7.93892L152.222 7.47161C151.975 7.93928 151.592 8.3214 151.03 8.61525L151.494 9.50142L151.957 10.3876C152.844 9.92387 153.536 9.26432 153.99 8.40623L153.106 7.93892ZM151.494 9.50142L151.035 8.61288C150.496 8.89114 149.742 9.0625 148.717 9.0625V10.0625V11.0625C149.945 11.0625 151.042 10.8598 151.952 10.39L151.494 9.50142ZM148.717 10.0625V9.0625H144.739V10.0625V11.0625H148.717V10.0625ZM144.739 10.0625H145.739V8.47159H144.739H143.739V10.0625H144.739ZM144.739 8.47159V9.47159H148.66V8.47159V7.47159H144.739V8.47159ZM148.66 8.47159V9.47159C149.52 9.47159 150.31 9.34777 150.968 9.03221L150.535 8.13068L150.102 7.22916C149.813 7.36814 149.352 7.47159 148.66 7.47159V8.47159ZM150.535 8.13068L150.964 9.03387C151.614 8.72515 152.136 8.25813 152.462 7.62006L151.572 7.16477L150.681 6.70949C150.582 6.90475 150.412 7.08167 150.106 7.22749L150.535 8.13068ZM151.572 7.16477L152.46 7.62393C152.766 7.03185 152.898 6.36541 152.898 5.65909H151.898H150.898C150.898 6.11755 150.813 6.4549 150.683 6.70562L151.572 7.16477ZM151.898 5.65909H152.898C152.898 4.95158 152.766 4.28399 152.466 3.68489L151.572 4.1321L150.677 4.57932C150.813 4.85143 150.898 5.20183 150.898 5.65909H151.898ZM151.572 4.1321L152.466 3.68489C152.142 3.03572 151.625 2.55095 150.971 2.22739L150.528 3.12358L150.084 4.01978C150.387 4.16969 150.566 4.35728 150.677 4.57932L151.572 4.1321ZM150.528 3.12358L150.978 2.23093C150.311 1.89368 149.506 1.76136 148.631 1.76136V2.76136V3.76136C149.328 3.76136 149.788 3.87053 150.077 4.01623L150.528 3.12358ZM148.631 2.76136V1.76136H145.535V2.76136V3.76136H148.631V2.76136ZM145.535 2.76136H144.535V15.7443H145.535H146.535V2.76136H145.535ZM145.535 15.7443V14.7443H143.773V15.7443V16.7443H145.535V15.7443ZM150.62 9.21023L149.743 9.69068L153.323 16.2248L154.2 15.7443L155.077 15.2639L151.497 8.72977L150.62 9.21023ZM154.2 15.7443V14.7443H152.154V15.7443V16.7443H154.2V15.7443ZM152.154 15.7443L153.034 15.2698L149.512 8.73567L148.631 9.21023L147.751 9.68478L151.274 16.2189L152.154 15.7443ZM148.631 9.21023V10.2102H150.62V9.21023V8.21023H148.631V9.21023ZM155.771 2.76136H154.771V3.76136H155.771V2.76136ZM155.771 1.19886V0.198865H154.771V1.19886H155.771ZM166.68 1.19886H167.68V0.198865H166.68V1.19886ZM166.68 2.76136V3.76136H167.68V2.76136H166.68ZM162.106 2.76136V1.76136H161.106V2.76136H162.106ZM162.106 15.7443V16.7443H163.106V15.7443H162.106ZM160.345 15.7443H159.345V16.7443H160.345V15.7443ZM160.345 2.76136H161.345V1.76136H160.345V2.76136ZM155.771 2.76136H156.771V1.19886H155.771H154.771V2.76136H155.771ZM155.771 1.19886V2.19886H166.68V1.19886V0.198865H155.771V1.19886ZM166.68 1.19886H165.68V2.76136H166.68H167.68V1.19886H166.68ZM166.68 2.76136V1.76136H162.106V2.76136V3.76136H166.68V2.76136ZM162.106 2.76136H161.106V15.7443H162.106H163.106V2.76136H162.106ZM162.106 15.7443V14.7443H160.345V15.7443V16.7443H162.106V15.7443ZM160.345 15.7443H161.345V2.76136H160.345H159.345V15.7443H160.345ZM160.345 2.76136V1.76136H155.771V2.76136V3.76136H160.345V2.76136ZM168.296 15.7443V16.7443H169.002L169.238 16.0789L168.296 15.7443ZM166.449 15.7443L165.511 15.3996L165.017 16.7443H166.449V15.7443ZM171.79 1.19886V0.198865H171.092L170.851 0.854179L171.79 1.19886ZM173.608 1.19886L174.547 0.854179L174.306 0.198865H173.608V1.19886ZM178.949 15.7443V16.7443H180.382L179.888 15.3996L178.949 15.7443ZM177.103 15.7443L176.16 16.0789L176.396 16.7443H177.103V15.7443ZM172.756 3.5L173.698 3.16547L173.462 2.5H172.756V3.5ZM172.642 3.5V2.5H171.936L171.7 3.16547L172.642 3.5ZM168.978 10.0625V9.0625H167.978V10.0625H168.978ZM176.421 10.0625H177.421V9.0625H176.421V10.0625ZM176.421 11.625V12.625H177.421V11.625H176.421ZM168.978 11.625H167.978V12.625H168.978V11.625ZM168.296 15.7443V14.7443H166.449V15.7443V16.7443H168.296V15.7443ZM166.449 15.7443L167.388 16.089L172.729 1.54355L171.79 1.19886L170.851 0.854179L165.511 15.3996L166.449 15.7443ZM171.79 1.19886V2.19886H173.608V1.19886V0.198865H171.79V1.19886ZM173.608 1.19886L172.67 1.54355L178.011 16.089L178.949 15.7443L179.888 15.3996L174.547 0.854179L173.608 1.19886ZM178.949 15.7443V14.7443H177.103V15.7443V16.7443H178.949V15.7443ZM177.103 15.7443L178.045 15.4098L173.698 3.16547L172.756 3.5L171.814 3.83454L176.16 16.0789L177.103 15.7443ZM172.756 3.5V2.5H172.642V3.5V4.5H172.756V3.5ZM172.642 3.5L171.7 3.16547L167.353 15.4098L168.296 15.7443L169.238 16.0789L173.585 3.83454L172.642 3.5ZM168.978 10.0625V11.0625H176.421V10.0625V9.0625H168.978V10.0625ZM176.421 10.0625H175.421V11.625H176.421H177.421V10.0625H176.421ZM176.421 11.625V10.625H168.978V11.625V12.625H176.421V11.625ZM168.978 11.625H169.978V10.0625H168.978H167.978V11.625H168.978Z" fill="black" mask="url(#path-1-outside-1_20_8967)"/>
</svg>
