<svg width="53" height="61" viewBox="0 0 53 61" fill="none" xmlns="http://www.w3.org/2000/svg">
<path d="M0.792614 60V53.4545H3.00426C3.51563 53.4545 3.93537 53.5419 4.26349 53.7166C4.59162 53.8892 4.83452 54.1268 4.99219 54.4293C5.14986 54.7319 5.22869 55.076 5.22869 55.4616C5.22869 55.8473 5.14986 56.1893 4.99219 56.4876C4.83452 56.7859 4.59268 57.0202 4.26669 57.1907C3.9407 57.359 3.52415 57.4432 3.01705 57.4432H1.22727V56.7273H2.99148C3.34091 56.7273 3.62216 56.6761 3.83523 56.5739C4.05043 56.4716 4.20597 56.3267 4.30185 56.1392C4.39986 55.9496 4.44886 55.7237 4.44886 55.4616C4.44886 55.1996 4.39986 54.9705 4.30185 54.7745C4.20384 54.5785 4.04723 54.4272 3.83203 54.3207C3.61683 54.212 3.33239 54.1577 2.97869 54.1577H1.58523V60H0.792614ZM3.87358 57.0597L5.48438 60H4.56392L2.97869 57.0597H3.87358ZM6.54945 60V53.4545H10.4997V54.1577H7.34206V56.3693H10.2952V57.0724H7.34206V59.2969H10.5509V60H6.54945ZM11.9284 60V53.4545H14.14C14.6535 53.4545 15.0732 53.5472 15.3992 53.7326C15.7274 53.9158 15.9703 54.1641 16.1279 54.4773C16.2856 54.7905 16.3644 55.1399 16.3644 55.5256C16.3644 55.9112 16.2856 56.2617 16.1279 56.5771C15.9724 56.8924 15.7316 57.1438 15.4056 57.3313C15.0796 57.5167 14.662 57.6094 14.1528 57.6094H12.5676V56.9062H14.1272C14.4788 56.9062 14.7611 56.8455 14.9742 56.7241C15.1872 56.6026 15.3417 56.4386 15.4376 56.2319C15.5356 56.0231 15.5846 55.7876 15.5846 55.5256C15.5846 55.2635 15.5356 55.0291 15.4376 54.8224C15.3417 54.6158 15.1862 54.4538 14.971 54.3366C14.7558 54.2173 14.4703 54.1577 14.1144 54.1577H12.721V60H11.9284ZM23.164 56.7273C23.164 57.4176 23.0393 58.0142 22.79 58.517C22.5407 59.0199 22.1988 59.4077 21.7641 59.6804C21.3295 59.9531 20.833 60.0895 20.2748 60.0895C19.7165 60.0895 19.2201 59.9531 18.7854 59.6804C18.3508 59.4077 18.0088 59.0199 17.7595 58.517C17.5102 58.0142 17.3856 57.4176 17.3856 56.7273C17.3856 56.0369 17.5102 55.4403 17.7595 54.9375C18.0088 54.4347 18.3508 54.0469 18.7854 53.7741C19.2201 53.5014 19.7165 53.3651 20.2748 53.3651C20.833 53.3651 21.3295 53.5014 21.7641 53.7741C22.1988 54.0469 22.5407 54.4347 22.79 54.9375C23.0393 55.4403 23.164 56.0369 23.164 56.7273ZM22.3969 56.7273C22.3969 56.1605 22.3021 55.6822 22.1125 55.2923C21.925 54.9023 21.6704 54.6072 21.3486 54.407C21.029 54.2067 20.6711 54.1065 20.2748 54.1065C19.8785 54.1065 19.5194 54.2067 19.1977 54.407C18.8781 54.6072 18.6235 54.9023 18.4339 55.2923C18.2464 55.6822 18.1526 56.1605 18.1526 56.7273C18.1526 57.294 18.2464 57.7724 18.4339 58.1623C18.6235 58.5522 18.8781 58.8473 19.1977 59.0476C19.5194 59.2479 19.8785 59.348 20.2748 59.348C20.6711 59.348 21.029 59.2479 21.3486 59.0476C21.6704 58.8473 21.925 58.5522 22.1125 58.1623C22.3021 57.7724 22.3969 57.294 22.3969 56.7273ZM24.4967 60V53.4545H26.7084C27.2197 53.4545 27.6395 53.5419 27.9676 53.7166C28.2957 53.8892 28.5386 54.1268 28.6963 54.4293C28.854 54.7319 28.9328 55.076 28.9328 55.4616C28.9328 55.8473 28.854 56.1893 28.6963 56.4876C28.5386 56.7859 28.2968 57.0202 27.9708 57.1907C27.6448 57.359 27.2282 57.4432 26.7211 57.4432H24.9314V56.7273H26.6956C27.045 56.7273 27.3263 56.6761 27.5393 56.5739C27.7545 56.4716 27.9101 56.3267 28.0059 56.1392C28.104 55.9496 28.153 55.7237 28.153 55.4616C28.153 55.1996 28.104 54.9705 28.0059 54.7745C27.9079 54.5785 27.7513 54.4272 27.5361 54.3207C27.3209 54.212 27.0365 54.1577 26.6828 54.1577H25.2893V60H24.4967ZM27.5777 57.0597L29.1885 60H28.268L26.6828 57.0597H27.5777ZM29.8956 54.1577V53.4545H34.8047V54.1577H32.7464V60H31.9538V54.1577H29.8956ZM35.5318 60H34.7008L37.1042 53.4545H37.9224L40.3258 60H39.4949L37.5389 54.4901H37.4877L35.5318 60ZM35.8386 57.4432H39.188V58.1463H35.8386V57.4432ZM41.3453 60V53.4545H43.557C44.0684 53.4545 44.4881 53.5419 44.8162 53.7166C45.1444 53.8892 45.3873 54.1268 45.5449 54.4293C45.7026 54.7319 45.7814 55.076 45.7814 55.4616C45.7814 55.8473 45.7026 56.1893 45.5449 56.4876C45.3873 56.7859 45.1454 57.0202 44.8194 57.1907C44.4934 57.359 44.0769 57.4432 43.5698 57.4432H41.78V56.7273H43.5442C43.8936 56.7273 44.1749 56.6761 44.388 56.5739C44.6032 56.4716 44.7587 56.3267 44.8546 56.1392C44.9526 55.9496 45.0016 55.7237 45.0016 55.4616C45.0016 55.1996 44.9526 54.9705 44.8546 54.7745C44.7566 54.5785 44.6 54.4272 44.3848 54.3207C44.1696 54.212 43.8851 54.1577 43.5314 54.1577H42.138V60H41.3453ZM44.4263 57.0597L46.0371 60H45.1167L43.5314 57.0597H44.4263Z" fill="white"/>
<path d="M7.66667 28.75C7.66667 28.75 9.58334 26.8333 15.3333 26.8333C21.0833 26.8333 24.9167 30.6666 30.6667 30.6666C36.4167 30.6666 38.3333 28.75 38.3333 28.75V5.74998C38.3333 5.74998 36.4167 7.66665 30.6667 7.66665C24.9167 7.66665 21.0833 3.83331 15.3333 3.83331C9.58334 3.83331 7.66667 5.74998 7.66667 5.74998V28.75ZM7.66667 28.75V42.1666" stroke="#F5F5F5" stroke-width="3.5" stroke-linecap="round" stroke-linejoin="round"/>
</svg>
