<svg width="10" height="956" viewBox="0 0 10 956" fill="none" xmlns="http://www.w3.org/2000/svg">
<rect x="0.5" y="0.5" width="9" height="955" stroke="black"/>
<path d="M7.14286 2H2.85714C2.38371 2 2 2.38371 2 2.85714V7.14286C2 7.61616 2.38371 8 2.85714 8H7.14286C7.61629 8 8 7.61616 8 7.14286V2.85714C8 2.38371 7.61562 2 7.14286 2ZM6.67545 5.66429C6.63661 5.7808 6.52009 5.85714 6.39286 5.85714H3.60714C3.4795 5.85714 3.36353 5.78139 3.3125 5.66415C3.26147 5.54643 3.28451 5.41116 3.37143 5.31741L4.76429 3.81741C4.8865 3.68683 5.1133 3.68683 5.23558 3.81741L6.62844 5.31741C6.71562 5.41116 6.73839 5.54643 6.67545 5.66429Z" fill="black"/>
<path d="M2 227.205C2 225.548 3.34315 224.205 5 224.205C6.65685 224.205 8 225.548 8 227.205V303.148C8 304.804 6.65685 306.148 5 306.148C3.34315 306.148 2 304.804 2 303.148V227.205Z" fill="black"/>
<path d="M7.14286 948H2.85714C2.38371 948 2 948.384 2 948.857V953.143C2 953.616 2.38371 954 2.85714 954H7.14286C7.61629 954 8 953.616 8 953.143V948.857C8 948.384 7.61562 948 7.14286 948ZM6.62857 950.683L5.23571 952.183C5.17411 952.248 5.08973 952.286 5 952.286C4.91027 952.286 4.82549 952.248 4.76442 952.183L3.37156 950.683C3.28451 950.589 3.26149 950.453 3.31254 950.336C3.36339 950.219 3.47991 950.143 3.60714 950.143H6.39286C6.5205 950.143 6.63647 950.219 6.67545 950.336C6.73839 950.454 6.71563 950.589 6.62857 950.683Z" fill="black"/>
</svg>
